<?xml version="1.0" encoding="UTF-8"?>
<svg width="40px" height="51px" viewBox="0 0 40 51" version="1.1" xmlns="http://www.w3.org/2000/svg" xmlns:xlink="http://www.w3.org/1999/xlink">
    <!-- Generator: Sketch 49.3 (51167) - http://www.bohemiancoding.com/sketch -->
    <title>cer</title>
    <desc>Created with Sketch.</desc>
    <defs></defs>
    <g id="icons" stroke="none" stroke-width="1" fill="none" fill-rule="evenodd">
        <g id="cer" fill-rule="nonzero">
            <path d="M2.5,1.0000001 C1.115,1.0000001 0,2.1150001 0,3.5 L0,48.5000001 C0,49.8850001 1.115,51.0000001 2.5,51.0000001 L37.5,51.0000001 C38.885,51.0000001 40,49.8850001 40,48.5000001 L40,16 L26.25,14.75 L25,1.0000001 L2.5,1.0000001 Z" id="Shape" fill="#000000" opacity="0.2"></path>
            <path d="M2.5,0 C1.115,0 0,1.115 0,2.5 L0,47.5 C0,48.885 1.115,50 2.5,50 L37.5,50 C38.885,50 40,48.885 40,47.5 L40,15 L26.25,13.75 L25,0 L2.5,0 Z" id="Shape" fill="#5FA762"></path>
            <path d="M25,1.0000001 L25,13.5000001 C25,14.8808001 26.1193,16.0000001 27.5,16.0000001 L40,16.0000001 L25,1.0000001 Z" id="Shape" fill="#000000" opacity="0.2"></path>
            <path d="M25,0 L25,12.5 C25,13.881 26.119,15 27.5,15 L40,15 L25,0 Z" id="Shape" fill="#AEC5AF"></path>
            <path d="M20,17.998291 C18.467508,18.000591 17.07102,18.878196 16.404297,20.258057 C15.95557,20.08793 15.479892,19.999939 15,19.998291 C12.790861,19.998291 11,21.789152 11,23.998291 C11.0004,24.477944 11.08706,24.953616 11.255859,25.402588 C9.877519,26.070423 9.001538,27.466683 9,28.998291 C9.0023,30.530783 9.879905,31.927271 11.259766,32.593994 C11.089639,33.042721 11.001648,33.518399 11,33.998291 C11,36.20743 12.790861,37.998291 15,37.998291 C15.337602,37.996391 15.673607,37.951771 16,37.865479 L16,44.998291 C16.00035,45.888928 17.077036,46.334878 17.707031,45.705322 L20,43.412353 L22.292969,45.705322 C22.922964,46.334878 23.99965,45.888928 24,44.998291 L24,37.867432 C24.326477,37.953072 24.662481,37.997036 25,37.998291 C27.209139,37.998291 29,36.20743 29,33.998291 C28.9996,33.518638 28.91293,33.042966 28.744141,32.593994 C30.122481,31.926159 30.998462,30.529899 31,28.998291 C30.9977,27.465799 30.120095,26.069311 28.740234,25.402588 C28.910361,24.953861 28.998352,24.478183 29,23.998291 C29,21.789152 27.209139,19.998291 25,19.998291 C24.520347,19.998691 24.044675,20.085351 23.595703,20.25415 C22.927868,18.87581 21.531608,17.999829 20,17.998291 Z M20,21.998291 C23.865993,21.998291 27,25.132298 27,28.998291 C27,32.864284 23.865993,35.998291 20,35.998291 C16.134007,35.998291 13,32.864284 13,28.998291 C13,25.132298 16.134007,21.998291 20,21.998291 Z M20,22.998291 C16.686292,22.998291 14,25.684583 14,28.998291 C14,32.311999 16.686292,34.998291 20,34.998291 C23.313708,34.998291 26,32.311999 26,28.998291 C26,25.684583 23.313708,22.998291 20,22.998291 Z" id="Shape" fill="#000000" opacity="0.2"></path>
            <path d="M20,17 C18.467508,17.0023 17.07102,17.879905 16.404297,19.259766 C15.95557,19.089639 15.479892,19.001648 15,19 C12.790861,19 11,20.790861 11,23 C11.0004,23.479653 11.08706,23.955325 11.255859,24.404297 C9.877519,25.072132 9.001538,26.468392 9,28 C9.0023,29.532492 9.879905,30.92898 11.259766,31.595703 C11.089639,32.04443 11.001648,32.520108 11,33 C11,35.209139 12.790861,37 15,37 C15.337602,36.9981 15.673607,36.95348 16,36.867188 L16,44 C16.00035,44.890637 17.077036,45.336587 17.707031,44.707031 L20,42.414062 L22.292969,44.707031 C22.922964,45.336587 23.99965,44.890637 24,44 L24,36.869141 C24.326477,36.954781 24.662481,36.998745 25,37 C27.209139,37 29,35.209139 29,33 C28.9996,32.520347 28.91293,32.044675 28.744141,31.595703 C30.122481,30.927868 30.998462,29.531608 31,28 C30.997737,26.467508 30.120095,25.07102 28.740234,24.404297 C28.910361,23.95557 28.998352,23.479892 29,23 C29,20.790861 27.209139,19 25,19 C24.520347,19.0004 24.044675,19.08706 23.595703,19.255859 C22.927868,17.877519 21.531608,17.001538 20,17 Z M20,21 C23.865993,21 27,24.134007 27,28 C27,31.865993 23.865993,35 20,35 C16.134007,35 13,31.865993 13,28 C13,24.134007 16.134007,21 20,21 Z M20,22 C16.686292,22 14,24.686292 14,28 C14,31.313708 16.686292,34 20,34 C23.313708,34 26,31.313708 26,28 C26,24.686292 23.313708,22 20,22 Z" id="Shape" fill="#FFFFFF"></path>
            <path d="M2.5,1e-07 C1.115,1e-07 0,1.1150001 0,2.5000001 L0,3.5 C0,2.1150001 1.115,1.0000001 2.5,1.0000001 L25,1.0000001 C25,9.99999994e-08 25,1.0000001 25,9.99999994e-08 L2.5,1e-07 Z" id="Shape" fill="#FFFFFF" opacity="0.2"></path>
        </g>
    </g>
</svg>