<?xml version="1.0" encoding="UTF-8"?>
<svg width="40px" height="51px" viewBox="0 0 40 51" version="1.1" xmlns="http://www.w3.org/2000/svg" xmlns:xlink="http://www.w3.org/1999/xlink">
    <!-- Generator: Sketch 49.3 (51167) - http://www.bohemiancoding.com/sketch -->
    <title>html</title>
    <desc>Created with Sketch.</desc>
    <defs></defs>
    <g id="icons" stroke="none" stroke-width="1" fill="none" fill-rule="evenodd">
        <g id="html" transform="translate(0.000000, -1.000000)" fill-rule="nonzero">
            <path d="M2.5,2 C1.115,2 0,3.115 0,4.5 L0,49.5 C0,50.884 1.115,52 2.5,52 L37.5,52 C38.884,52 40,50.884 40,49.5 L40,18 L26.25,15.75 L24,2 L2.5,2 Z" id="Shape" fill="#000000" opacity="0.2"></path>
            <path d="M2.5,1 C1.115,1 0,2.115 0,3.5 L0,48.5 C0,49.884 1.115,51 2.5,51 L37.5,51 C38.884,51 40,49.884 40,48.5 L40,17 L26.25,14.75 L24,1 L2.5,1 Z" id="Shape" fill="#4F92D1"></path>
            <path d="M24,2 L24,15.3334 C24,16.8054 25.194,17.9994 26.666,17.9994 L40,17.9994 L24,1.9994 L24,2 Z" id="Shape" fill="#000000" opacity="0.2"></path>
            <path d="M24,1 L24,14.3334 C24,15.8054 25.194,16.9994 26.666,16.9994 L40,16.9994 L24,0.9994 L24,1 Z" id="Shape" fill="#88BAEA"></path>
            <path d="M2.5,1 C1.115,1 0,2.115 0,3.5 L0,4.5 C0,3.115 1.115,2 2.5,2 L24,2 L24,1 L2.5,1 Z" id="Shape" fill="#FFFFFF" opacity="0.2"></path>
            <path d="M20,21 C12.268,21 6,27.268 6,35 C6,42.732 12.268,49 20,49 C27.732,49 34,42.732 34,35 C34,27.268 27.732,21 20,21 Z M18.597656,23.675782 C18.760876,23.658782 18.968132,23.685582 19.132812,23.675782 C19.152412,23.753862 19.014292,24.03096 18.828124,24.4375 C17.642738,27.027088 17.575634,30.062602 18.675784,31.683594 C18.874864,31.97749 19.05469,32.256608 19.05469,32.292968 C19.05469,32.329308 18.840418,32.367188 18.597658,32.367188 C18.027774,32.367188 17.4886,32.020978 16.38672,31.148438 C15.897226,30.760828 15.262166,30.435998 15.015626,30.386718 C14.62848,30.309378 14.524278,30.342858 14.02344,30.84375 C13.557454,31.309652 13.414064,31.56176 13.414064,31.988282 C13.414064,33.605714 15.333136,34.887954 18.902346,35.644532 C23.749466,36.671852 24.944428,37.595738 25.078126,40.144532 C25.245986,43.340648 23.543424,45.751486 19.816408,47.617188 C19.371564,47.839946 19.088986,47.924114 18.902346,47.996094 C18.819646,47.988694 18.758246,48.003494 18.675784,47.996094 C18.644064,47.897274 18.597664,47.668754 18.597664,47.234376 C18.597664,45.536822 17.930124,43.789634 16.921884,42.8125 C16.651238,42.550174 15.89113,41.99546 15.242196,41.59375 C14.593286,41.192064 13.938876,40.726424 13.792976,40.527344 C13.551196,40.196972 13.532998,39.993126 13.718756,39.382812 C14.0573,38.268148 14.458828,37.6457 15.242194,36.941406 C15.652882,36.57217 16.065276,36.265212 16.156256,36.257812 C16.247256,36.250412 15.634648,36.063952 14.710944,35.875 C13.787292,35.68568 12.432966,35.28799 11.734382,35.035156 C10.45696,34.572938 8.735654,33.604612 8.07813,32.902344 C8.05031,32.872584 8.02417,32.850584 8.00001,32.824224 C8.942084,29.071592 11.585104,25.9978 15.089854,24.51563 C15.82318,24.20546 16.580912,23.99135 17.378916,23.82813 C17.776406,23.74689 18.187246,23.71751 18.597666,23.67579 L18.597656,23.675782 Z M30.035156,29.394532 C30.321708,29.571652 31.402084,31.91287 31.710938,33.054688 C32.109696,34.528782 32.080832,37.078608 31.710938,38.542968 C31.570158,39.100312 31.392052,39.6226 31.332032,39.6875 C31.272012,39.7524 31.052906,39.379508 30.796876,38.925782 C30.540818,38.472128 29.722666,37.506236 29.042968,36.789062 C27.08104,34.718832 26.771932,33.640504 27.59375,31.988282 C28.008196,31.155122 29.81338,29.257652 30.035156,29.394532 Z" id="Shape" fill="#000000" opacity="0.2"></path>
            <path d="M20,20 C12.268,20 6,26.268 6,34 C6,41.732 12.268,48 20,48 C27.732,48 34,41.732 34,34 C34,26.268 27.732,20 20,20 Z M18.597656,22.675782 C18.760876,22.658782 18.968132,22.685582 19.132812,22.675782 C19.152412,22.753862 19.014292,23.03096 18.828124,23.4375 C17.642738,26.027088 17.575634,29.062602 18.675784,30.683594 C18.874864,30.97749 19.05469,31.256608 19.05469,31.292968 C19.05469,31.329308 18.840418,31.367188 18.597658,31.367188 C18.027774,31.367188 17.4886,31.020978 16.38672,30.148438 C15.897226,29.760828 15.262166,29.435998 15.015626,29.386718 C14.62848,29.309378 14.524278,29.342858 14.02344,29.84375 C13.557454,30.309652 13.414064,30.56176 13.414064,30.988282 C13.414064,32.605714 15.333136,33.887954 18.902346,34.644532 C23.749466,35.671852 24.944428,36.595738 25.078126,39.144532 C25.245986,42.340648 23.543424,44.751486 19.816408,46.617188 C19.371564,46.839946 19.088986,46.924114 18.902346,46.996094 C18.819646,46.988694 18.758246,47.003494 18.675784,46.996094 C18.644064,46.897274 18.597664,46.668754 18.597664,46.234376 C18.597664,44.536822 17.930124,42.789634 16.921884,41.8125 C16.651238,41.550174 15.89113,40.99546 15.242196,40.59375 C14.593286,40.192064 13.938876,39.726424 13.792976,39.527344 C13.551196,39.196972 13.532998,38.993126 13.718756,38.382812 C14.0573,37.268148 14.458828,36.6457 15.242194,35.941406 C15.652882,35.57217 16.065276,35.265212 16.156256,35.257812 C16.247256,35.250412 15.634648,35.063952 14.710944,34.875 C13.787292,34.68568 12.432966,34.28799 11.734382,34.035156 C10.45696,33.572938 8.735654,32.604612 8.07813,31.902344 C8.05031,31.872584 8.02417,31.850584 8.00001,31.824224 C8.942084,28.071592 11.585104,24.9978 15.089854,23.51563 C15.82318,23.20546 16.580912,22.99135 17.378916,22.82813 C17.776406,22.74689 18.187246,22.71751 18.597666,22.67579 L18.597656,22.675782 Z M30.035156,28.394532 C30.321708,28.571652 31.402084,30.91287 31.710938,32.054688 C32.109696,33.528782 32.080832,36.078608 31.710938,37.542968 C31.570158,38.100312 31.392052,38.6226 31.332032,38.6875 C31.272012,38.7524 31.052906,38.379508 30.796876,37.925782 C30.540818,37.472128 29.722666,36.506236 29.042968,35.789062 C27.08104,33.718832 26.771932,32.640504 27.59375,30.988282 C28.008196,30.155122 29.81338,28.257652 30.035156,28.394532 Z" id="Shape" fill="#FFFFFF"></path>
        </g>
    </g>
</svg>