<?xml version="1.0" encoding="UTF-8"?>
<svg width="40px" height="51px" viewBox="0 0 40 51" version="1.1" xmlns="http://www.w3.org/2000/svg" xmlns:xlink="http://www.w3.org/1999/xlink">
    <!-- Generator: Sketch 49.3 (51167) - http://www.bohemiancoding.com/sketch -->
    <title>iso</title>
    <desc>Created with Sketch.</desc>
    <defs></defs>
    <g id="icons" stroke="none" stroke-width="1" fill="none" fill-rule="evenodd">
        <g id="iso" fill-rule="nonzero">
            <path d="M2.5,1 C1.115,1 0,2.115 0,3.5 L0,48.5 C0,49.885 1.115,51 2.5,51 L37.5,51 C38.885,51 40,49.885 40,48.5 L40,16 L26.25,14.75 L25,1 L2.5,1 Z" id="Shape" fill="#000000" opacity="0.2"></path>
            <path d="M2.5,0 C1.115,0 0,1.115 0,2.5 L0,47.5 C0,48.885 1.115,50 2.5,50 L37.5,50 C38.885,50 40,48.885 40,47.5 L40,15 L26.25,13.75 L25,0 L2.5,0 Z" id="Shape" fill="#D881B1"></path>
            <path d="M25,1 L25,13.5 C25,14.8808 26.1193,16 27.5,16 L40,16 L25,1 Z" id="Shape" fill="#000000" opacity="0.2"></path>
            <path d="M20,18 C12.798,18 7,23.798 7,31 C7,38.202 12.798,44 20,44 C27.202,44 33,38.202 33,31 C33,23.798 27.202,18 20,18 Z M20,26 C22.7614237,26 25,28.2385763 25,31 C25,33.7614237 22.7614237,36 20,36 C17.2385763,36 15,33.7614237 15,31 C15,28.2385763 17.2385763,26 20,26 Z" id="Shape" fill="#000000" opacity="0.2"></path>
            <path d="M20,23 C16.1340068,23 13,26.1340068 13,30 C13,33.8659932 16.1340068,37 20,37 C23.8659932,37 27,33.8659932 27,30 C27,26.1340068 23.8659932,23 20,23 Z M20,27 C21.657,27 23,28.343 23,30 C23,31.657 21.657,33 20,33 C18.343,33 17,31.657 17,30 C17,28.343 18.343,27 20,27 Z" id="Shape" fill="#FFFFFF" opacity="0.5"></path>
            <path d="M25,0 L25,12.5 C25,13.8808 26.1193,15 27.5,15 L40,15 L25,0 Z" id="Shape" fill="#EDB0D2"></path>
            <path d="M20,17 C12.798,17 7,22.798 7,30 C7,37.202 12.798,43 20,43 C27.202,43 33,37.202 33,30 C33,22.798 27.202,17 20,17 Z M20,25 C22.7614237,25 25,27.2385763 25,30 C25,32.7614237 22.7614237,35 20,35 C17.2385763,35 15,32.7614237 15,30 C15,27.2385763 17.2385763,25 20,25 Z" id="Shape" fill="#FFFFFF"></path>
            <path d="M2.5,0 C1.115,0 0,1.115 0,2.5 L0,3.5 C0,2.115 1.115,1 2.5,1 L25,1 C25,0 25,1 25,0 L2.5,0 Z" id="Shape" fill="#FFFFFF" opacity="0.2"></path>
        </g>
    </g>
</svg>