<?xml version="1.0" encoding="UTF-8"?>
<svg width="40px" height="51px" viewBox="0 0 40 51" version="1.1" xmlns="http://www.w3.org/2000/svg" xmlns:xlink="http://www.w3.org/1999/xlink">
    <!-- Generator: Sketch 49.3 (51167) - http://www.bohemiancoding.com/sketch -->
    <title>pdf</title>
    <desc>Created with Sketch.</desc>
    <defs></defs>
    <g id="icons" stroke="none" stroke-width="1" fill="none" fill-rule="evenodd">
        <g id="pdf" fill-rule="nonzero">
            <path d="M2.5,1 C1.115,1 0,2.115 0,3.5 L0,48.5 C0,49.885 1.115,51 2.5,51 L37.5,51 C38.885,51 40,49.885 40,48.5 L40,16 L26.25,14.75 L25,1 L2.5,1 Z" id="Shape" fill="#000000" opacity="0.2"></path>
            <path d="M2.5,0 C1.115,0 0,1.115 0,2.5 L0,47.5 C0,48.885 1.115,50 2.5,50 L37.5,50 C38.885,50 40,48.885 40,47.5 L40,15 L26.25,13.75 L25,0 L2.5,0 Z" id="Shape" fill="#EA726B"></path>
            <path d="M25,1 L25,13.5 C25,14.8808 26.1193,16 27.5,16 L40,16 L25,1 Z" id="Shape" fill="#000000" opacity="0.2"></path>
            <path d="M25,0 L25,12.5 C25,13.8808 26.1193,15 27.5,15 L40,15 L25,0 Z" id="Shape" fill="#F2A7A2"></path>
            <path d="M17.976,18.562 C17.39942,18.562 16.8602,18.84421 16.7298,19.31001 C16.2454,21.09581 16.78755,23.85741 17.69175,27.29831 L17.41899,27.96449 C16.72665,29.65209 15.86119,31.33289 15.10019,32.82439 C11.95829,38.97189 9.51409,42.28879 7.88429,42.52119 L7.87799,42.45369 C7.84262,41.68687 9.25779,39.70979 11.17579,38.13789 C11.37585,37.97609 12.22959,37.15013 12.22959,37.15013 C12.22959,37.15013 11.07719,37.75847 10.81839,37.91535 C8.41489,39.34995 7.21889,40.78735 7.02389,41.74145 C6.96601,42.02485 7.00314,42.37357 7.25358,42.51675 L7.86808,42.82543 C9.54108,43.66287 11.59818,41.46093 14.33308,36.66763 C17.11608,35.75468 20.58848,34.89513 23.74998,34.42943 C26.57998,36.04643 29.82618,36.81633 31.07348,36.48393 C31.31082,36.42118 31.56048,36.23488 31.68798,36.06328 C31.78798,35.90539 31.92777,35.27363 31.92777,35.27363 C31.92777,35.27363 31.69311,35.59297 31.49989,35.68711 C30.71049,36.05975 28.21829,35.43806 25.66089,34.18691 C27.87209,33.95156 29.71429,33.94249 30.69879,34.25716 C31.94919,34.65628 31.95019,35.0654 31.93349,35.14874 C31.95036,35.08012 32.00636,34.80602 31.99949,34.68933 C31.97112,34.38925 31.87861,34.12129 31.65205,33.89968 C31.18921,33.44369 30.04645,33.2139 28.48915,33.19332 C27.31535,33.18057 25.90795,33.28332 24.38015,33.502 C23.68,33.09995 22.94115,32.65798 22.35575,32.1108 C20.87115,30.7242 19.62675,28.799 18.85395,26.6408 C18.9067,26.43389 18.9572,26.23171 19.00325,26.02774 C19.21804,25.06185 19.37221,21.86854 19.37221,21.86854 C19.37221,21.86854 18.76053,24.26754 18.66443,24.62944 C18.60268,24.8589 18.52585,25.10382 18.43759,25.35878 C17.96884,23.71138 17.73123,22.11478 17.73123,20.90378 C17.73123,20.56154 17.76061,19.89558 17.85754,19.36898 C17.90479,18.99342 18.04079,18.79839 18.18204,18.70424 C18.4615,18.77199 18.77433,19.20059 19.1009,19.91744 C19.38134,20.53719 19.36361,21.25494 19.36361,21.69924 C19.36361,21.69924 19.66437,20.59924 19.59476,19.94914 C19.55239,19.55885 19.18106,18.55474 18.39166,18.56654 L18.32703,18.56654 L17.97529,18.56274 L17.976,18.562 Z M18.24448,28.5359 C19.06137,30.1784 20.18798,31.7383 21.66588,32.9895 C21.99534,33.26799 22.34588,33.53294 22.70678,33.782 C20.02288,34.28114 17.20418,34.9833 14.58488,36.0806 C15.05852,35.23924 15.57064,34.3226 16.09528,33.3341 C17.11118,31.4131 17.72678,29.9313 18.24448,28.536 L18.24448,28.5359 Z" id="Shape" fill="#000000" opacity="0.2"></path>
            <path d="M17.976,17.562 C17.39942,17.562 16.8602,17.84421 16.7298,18.31001 C16.2454,20.09581 16.78755,22.85741 17.69175,26.29831 L17.41899,26.96449 C16.72665,28.65209 15.86119,30.33289 15.10019,31.82439 C11.95829,37.97189 9.51409,41.28879 7.88429,41.52119 L7.87799,41.45369 C7.84262,40.68687 9.25779,38.70979 11.17579,37.13789 C11.37585,36.97609 12.22959,36.15013 12.22959,36.15013 C12.22959,36.15013 11.07719,36.75847 10.81839,36.91535 C8.41489,38.34995 7.21889,39.78735 7.02389,40.74145 C6.96601,41.02485 7.00314,41.37357 7.25358,41.51675 L7.86808,41.82543 C9.54108,42.66287 11.59818,40.46093 14.33308,35.66763 C17.11608,34.75468 20.58848,33.89513 23.74998,33.42943 C26.57998,35.04643 29.82618,35.81633 31.07348,35.48393 C31.31082,35.42118 31.56048,35.23488 31.68798,35.06328 C31.78798,34.90539 31.92777,34.27363 31.92777,34.27363 C31.92777,34.27363 31.69311,34.59297 31.49989,34.68711 C30.71049,35.05975 28.21829,34.43806 25.66089,33.18691 C27.87209,32.95156 29.71429,32.94249 30.69879,33.25716 C31.94919,33.65628 31.95019,34.0654 31.93349,34.14874 C31.95036,34.08012 32.00636,33.80602 31.99949,33.68933 C31.97112,33.38925 31.87861,33.12129 31.65205,32.89968 C31.18921,32.44369 30.04645,32.2139 28.48915,32.19332 C27.31535,32.18057 25.90795,32.28332 24.38015,32.502 C23.68,32.09995 22.94115,31.65798 22.35575,31.1108 C20.87115,29.7242 19.62675,27.799 18.85395,25.6408 C18.9067,25.43389 18.9572,25.23171 19.00325,25.02774 C19.21804,24.06185 19.37221,20.86854 19.37221,20.86854 C19.37221,20.86854 18.76053,23.26754 18.66443,23.62944 C18.60268,23.8589 18.52585,24.10382 18.43759,24.35878 C17.96884,22.71138 17.73123,21.11478 17.73123,19.90378 C17.73123,19.56154 17.76061,18.89558 17.85754,18.36898 C17.90479,17.99342 18.04079,17.79839 18.18204,17.70424 C18.4615,17.77199 18.77433,18.20059 19.1009,18.91744 C19.38134,19.53719 19.36361,20.25494 19.36361,20.69924 C19.36361,20.69924 19.66437,19.59924 19.59476,18.94914 C19.55239,18.55885 19.18106,17.55474 18.39166,17.56654 L18.32703,17.56654 L17.97529,17.56274 L17.976,17.562 Z M18.24448,27.5359 C19.06137,29.1784 20.18798,30.7383 21.66588,31.9895 C21.99534,32.26799 22.34588,32.53294 22.70678,32.782 C20.02288,33.28114 17.20418,33.9833 14.58488,35.0806 C15.05852,34.23924 15.57064,33.3226 16.09528,32.3341 C17.11118,30.4131 17.72678,28.9313 18.24448,27.536 L18.24448,27.5359 Z" id="Shape" fill="#FFFFFF"></path>
            <path d="M2.5,0 C1.115,0 0,1.115 0,2.5 L0,3.5 C0,2.115 1.115,1 2.5,1 L25,1 C25,0 25,1 25,0 L2.5,0 Z" id="Shape" fill="#FFFFFF" opacity="0.2"></path>
        </g>
    </g>
</svg>