<?xml version="1.0" encoding="UTF-8"?>
<svg width="40px" height="51px" viewBox="0 0 40 51" version="1.1" xmlns="http://www.w3.org/2000/svg" xmlns:xlink="http://www.w3.org/1999/xlink">
    <!-- Generator: Sketch 49.3 (51167) - http://www.bohemiancoding.com/sketch -->
    <title>php</title>
    <desc>Created with Sketch.</desc>
    <defs></defs>
    <g id="icons" stroke="none" stroke-width="1" fill="none" fill-rule="evenodd">
        <g id="php" fill-rule="nonzero">
            <path d="M2.5,0.9999999 C1.115,0.9999999 0,2.1149999 0,3.49999999 L0,48.4999999 C0,49.8849999 1.115,50.9999999 2.5,50.9999999 L37.5,50.9999999 C38.885,50.9999999 40,49.8849999 40,48.4999999 L40,16 L26.25,14.75 L25,0.9999999 L2.5,0.9999999 Z" id="Shape" fill="#000000" opacity="0.2"></path>
            <path d="M2.5,0 C1.115,0 0,1.115 0,2.5 L0,47.5 C0,48.885 1.115,50 2.5,50 L37.5,50 C38.885,50 40,48.885 40,47.5 L40,15 L26.25,13.75 L25,0 L2.5,0 Z" id="Shape" fill="#8F70B0"></path>
            <path d="M25,0.9999999 L25,13.4999999 C25,14.8807999 26.1193,15.9999999 27.5,15.9999999 L40,15.9999999 L25,0.9999999 Z" id="Shape" fill="#000000" opacity="0.2"></path>
            <path d="M25,0 L25,12.5 C25,13.8808 26.1193,15 27.5,15 L40,15 L25,0 Z" id="Shape" fill="#C8B2DF"></path>
            <path d="M23.333984,25 C22.597984,25 22,25.955406 22,26.691406 L22,29.357422 C21.974,31.161422 25.026,31.161422 25,29.357422 L25,28 L27,28 L27,32.642578 L23.699219,34.914062 C23.341219,35.153062 23.014,35.550469 23,35.980469 L23,38.648438 C22.974,40.452438 26.026,40.452438 26,38.648438 L26,36.695312 L29.40625,34.423828 C29.76525,34.184828 29.986,33.788422 30,33.357422 L30,26.691406 C30,25.955406 29.402016,25 28.666016,25 L23.333984,25 Z M18,26 L8,35 L18,44 L18,40 L13,35 L18,30 L18,26 Z M24.5,41 C23.6715729,41 23,41.6715729 23,42.5 C23,43.3284271 23.6715729,44 24.5,44 C25.3284271,44 26,43.3284271 26,42.5 C26,41.6715729 25.3284271,41 24.5,41 Z" id="Shape" fill="#000000" opacity="0.2"></path>
            <path d="M23.333984,24 C22.597984,24 22,24.955406 22,25.691406 L22,28.357422 C21.974,30.161422 25.026,30.161422 25,28.357422 L25,27 L27,27 L27,31.642578 L23.699219,33.914062 C23.341219,34.153062 23.014,34.550469 23,34.980469 L23,37.648438 C22.974,39.452438 26.026,39.452438 26,37.648438 L26,35.695312 L29.40625,33.423828 C29.76525,33.184828 29.986,32.788422 30,32.357422 L30,25.691406 C30,24.955406 29.402016,24 28.666016,24 L23.333984,24 Z M18,25 L8,34 L18,43 L18,39 L13,34 L18,29 L18,25 Z M24.5,40 C23.6715729,40 23,40.6715729 23,41.5 C23,42.3284271 23.6715729,43 24.5,43 C25.3284271,43 26,42.3284271 26,41.5 C26,40.6715729 25.3284271,40 24.5,40 Z" id="Shape" fill="#FFFFFF"></path>
            <path d="M2.5,-1e-07 C1.115,-1e-07 0,1.1149999 0,2.4999999 L0,3.5 C0,2.1149999 1.115,0.9999999 2.5,0.9999999 L25,0.9999999 C25,-1e-07 25,0.9999999 25,-1e-07 L2.5,-1e-07 Z" id="Shape" fill="#FFFFFF" opacity="0.2"></path>
        </g>
    </g>
</svg>