<?xml version="1.0" encoding="UTF-8"?>
<svg width="40px" height="51px" viewBox="0 0 40 51" version="1.1" xmlns="http://www.w3.org/2000/svg" xmlns:xlink="http://www.w3.org/1999/xlink">
    <!-- Generator: Sketch 49.3 (51167) - http://www.bohemiancoding.com/sketch -->
    <title>playlist</title>
    <desc>Created with Sketch.</desc>
    <defs></defs>
    <g id="icons" stroke="none" stroke-width="1" fill="none" fill-rule="evenodd">
        <g id="playlist" fill-rule="nonzero">
            <path d="M2.5,1.0000003 C1.115,1.0000003 0,2.11500031 0,3.50000001 L0,48.5000003 C0,49.8850003 1.115,51.0000003 2.5,51.0000003 L37.5,51.0000003 C38.885,51.0000003 40,49.8850003 40,48.5000003 L40,16.0000001 L26.25,14.7500001 L25,1.0000003 L2.5,1.0000003 Z" id="Shape" fill="#000000" opacity="0.2"></path>
            <path d="M2.5,0 C1.115,0 0,1.115 0,2.5 L0,47.5 C0,48.885 1.115,50 2.5,50 L37.5,50 C38.885,50 40,48.885 40,47.5 L40,15 L26.25,13.75 L25,0 L2.5,0 Z" id="Shape" fill="#5491BB"></path>
            <path d="M25,1.0000003 L25,13.5000002 C25,14.8808003 26.1193,16.0000003 27.5,16.0000003 L40,16.0000003 L25,1.0000003 Z" id="Shape" fill="#000000" opacity="0.2"></path>
            <path d="M25,0 L25,12.5 C25,13.8808 26.1193,15 27.5,15 L40,15 L25,0 Z" id="Shape" fill="#99BFD9"></path>
            <path d="M2.5,3e-07 C1.115,3e-07 0,1.1150003 0,2.5000003 L0,3.5 C0,2.1150003 1.115,1.0000003 2.5,1.0000003 L25,1.0000003 C25,3e-07 25,1.0000003 25,3e-07 L2.5,3e-07 Z" id="Shape" fill="#FFFFFF" opacity="0.2"></path>
            <path d="M12.1988119,21.000568 C11.6203489,20.9874694 11.0608892,21.2012667 10.6470314,21.5935802 C10.2331735,21.9858938 9.99990086,22.5235615 10,23.0849159 L10,42.9160953 C10.0002408,43.6606553 10.4098011,44.3485612 11.0744691,44.7207956 C11.7391371,45.09303 12.557985,45.0930703 13.2226919,44.7209013 L30.9265075,34.8053116 C31.5908336,34.4328175 32,33.7449074 32,33.0005046 C32,32.2561019 31.5908336,31.5681918 30.9265075,31.1956977 L13.2226919,21.280106 C12.9109404,21.1051502 12.5588598,21.0090257 12.1988119,21.000568 Z" id="Shape" fill="#000000" opacity="0.2"></path>
            <path d="M12.1988119,20.000568 C11.6203489,19.9874694 11.0608892,20.2012667 10.6470314,20.5935802 C10.2331735,20.9858938 9.99990086,21.5235615 10,22.0849159 L10,41.9160953 C10.0002408,42.6606553 10.4098011,43.3485612 11.0744691,43.7207956 C11.7391371,44.09303 12.557985,44.0930703 13.2226919,43.7209013 L30.9265075,33.8053116 C31.5908336,33.4328175 32,32.7449074 32,32.0005046 C32,31.2561019 31.5908336,30.5681918 30.9265075,30.1956977 L13.2226919,20.280106 C12.9109404,20.1051502 12.5588598,20.0090257 12.1988119,20.000568 Z" id="Shape" fill="#FFFFFF"></path>
        </g>
    </g>
</svg>