<?xml version="1.0" encoding="UTF-8"?>
<svg width="40px" height="51px" viewBox="0 0 40 51" version="1.1" xmlns="http://www.w3.org/2000/svg" xmlns:xlink="http://www.w3.org/1999/xlink">
    <!-- Generator: Sketch 49.3 (51167) - http://www.bohemiancoding.com/sketch -->
    <title>unknown</title>
    <desc>Created with Sketch.</desc>
    <defs></defs>
    <g id="icons" stroke="none" stroke-width="1" fill="none" fill-rule="evenodd">
        <g id="unknown" fill-rule="nonzero">
            <path d="M2.5,0.9999995 C1.115,0.9999995 0,2.11499949 0,3.49999997 L0,48.4999995 C0,49.8849995 1.115,50.9999995 2.5,50.9999995 L37.5,50.9999995 C38.885,50.9999995 40,49.8849995 40,48.4999995 L40,15.9999998 L26.25,14.7499999 L25,0.9999995 L2.5,0.9999995 Z" id="Shape" fill="#000000" opacity="0.2"></path>
            <path d="M2.5,0 C1.115,0 0,1.115 0,2.5 L0,47.5 C0,48.885 1.115,50 2.5,50 L37.5,50 C38.885,50 40,48.885 40,47.5 L40,15 L26.25,13.75 L25,0 L2.5,0 Z" id="Shape" fill="#D9D9D9"></path>
            <path d="M5,4 C4.446,4 4,4.446 4,5 L4,11 C4,11.554 4.446,12 5,12 L9,12 C9.554,12 10,11.554 10,11 L10,5 C10,4.446 9.554,4 9,4 L5,4 Z M13.5,4 C13.223,4 13,4.223 13,4.5 L13,11.5 C13,11.777 13.223,12 13.5,12 L14.5,12 C14.777,12 15,11.777 15,11.5 L15,4.5 C15,4.223 14.777,4 14.5,4 L13.5,4 Z M18.5,4 C18.223,4 18,4.223 18,4.5 L18,11.5 C18,11.777 18.223,12 18.5,12 L19.5,12 C19.777,12 20,11.777 20,11.5 L20,4.5 C20,4.223 19.777,4 19.5,4 L18.5,4 Z M23,4 C22.446,4 22,4.446 22,5 L22,11 C22,11.554 22.446,12 23,12 L27,12 C27.554,12 28,11.554 28,11 L28,5 C28,4.446 27.554,4 27,4 L23,4 Z M6,6 L8,6 L8,10 L6,10 L6,6 Z M24,6 L26,6 L26,10 L24,10 L24,6 Z M6.5,15 C6.223,15 6,15.223 6,15.5 L6,22.5 C6,22.777 6.223,23 6.5,23 L7.5,23 C7.777,23 8,22.777 8,22.5 L8,15.5 C8,15.223 7.777,15 7.5,15 L6.5,15 Z M13,15 C12.446,15 12,15.446 12,16 L12,22 C12,22.554 12.446,23 13,23 L17,23 C17.554,23 18,22.554 18,22 L18,16 C18,15.446 17.554,15 17,15 L13,15 Z M21.5,15 C21.223,15 21,15.223 21,15.5 L21,22.5 C21,22.777 21.223,23 21.5,23 L22.5,23 C22.777,23 23,22.777 23,22.5 L23,15.5 C23,15.223 22.777,15 22.5,15 L21.5,15 Z M26.5,15 C26.223,15 26,15.223 26,15.5 L26,22.5 C26,22.777 26.223,23 26.5,23 L27.5,23 C27.777,23 28,22.777 28,22.5 L28,15.5 C28,15.223 27.777,15 27.5,15 L26.5,15 Z M31,15 C30.446,15 30,15.446 30,16 L30,22 C30,22.554 30.446,23 31,23 L35,23 C35.554,23 36,22.554 36,22 L36,16 C36,15.446 35.554,15 35,15 L31,15 Z M14,17 L16,17 L16,21 L14,21 L14,17 Z M32,17 L34,17 L34,21 L32,21 L32,17 Z M5,26 C4.446,26 4,26.446 4,27 L4,33 C4,33.554 4.446,34 5,34 L9,34 C9.554,34 10,33.554 10,33 L10,27 C10,26.446 9.554,26 9,26 L5,26 Z M13,26 C12.446,26 12,26.446 12,27 L12,33 C12,33.554 12.446,34 13,34 L17,34 C17.554,34 18,33.554 18,33 L18,27 C18,26.446 17.554,26 17,26 L13,26 Z M21.5,26 C21.223,26 21,26.223 21,26.5 L21,33.5 C21,33.777 21.223,34 21.5,34 L22.5,34 C22.777,34 23,33.777 23,33.5 L23,26.5 C23,26.223 22.777,26 22.5,26 L21.5,26 Z M26.5,26 C26.223,26 26,26.223 26,26.5 L26,33.5 C26,33.777 26.223,34 26.5,34 L27.5,34 C27.777,34 28,33.777 28,33.5 L28,26.5 C28,26.223 27.777,26 27.5,26 L26.5,26 Z M31,26 C30.446,26 30,26.446 30,27 L30,33 C30,33.554 30.446,34 31,34 L35,34 C35.554,34 36,33.554 36,33 L36,27 C36,26.446 35.554,26 35,26 L31,26 Z M6,28 L8,28 L8,32 L6,32 L6,28 Z M14,28 L16,28 L16,32 L14,32 L14,28 Z M32,28 L34,28 L34,32 L32,32 L32,28 Z M5,37 C4.446,37 4,37.446 4,38 L4,44 C4,44.554 4.446,45 5,45 L9,45 C9.554,45 10,44.554 10,44 L10,38 C10,37.446 9.554,37 9,37 L5,37 Z M13.5,37 C13.223,37 13,37.223 13,37.5 L13,44.5 C13,44.777 13.223,45 13.5,45 L14.5,45 C14.777,45 15,44.777 15,44.5 L15,37.5 C15,37.223 14.777,37 14.5,37 L13.5,37 Z M18.5,37 C18.223,37 18,37.223 18,37.5 L18,44.5 C18,44.777 18.223,45 18.5,45 L19.5,45 C19.777,45 20,44.777 20,44.5 L20,37.5 C20,37.223 19.777,37 19.5,37 L18.5,37 Z M23,37 C22.446,37 22,37.446 22,38 L22,44 C22,44.554 22.446,45 23,45 L27,45 C27.554,45 28,44.554 28,44 L28,38 C28,37.446 27.554,37 27,37 L23,37 Z M32.5,37 C32.223,37 32,37.223 32,37.5 L32,44.5 C32,44.777 32.223,45 32.5,45 L33.5,45 C33.777,45 34,44.777 34,44.5 L34,37.5 C34,37.223 33.777,37 33.5,37 L32.5,37 Z M6,39 L8,39 L8,43 L6,43 L6,39 Z M24,39 L26,39 L26,43 L24,43 L24,39 Z" id="Shape" fill="#8F8F8F"></path>
            <path d="M25,0.9999995 L25,13.4999996 C25,14.8807995 26.1193,15.9999995 27.5,15.9999995 L40,15.9999995 L25,0.9999995 Z" id="Shape" fill="#000000" opacity="0.2"></path>
            <path d="M25,0 L25,12.5 C25,13.8808 26.1193,15 27.5,15 L40,15 L25,0 Z" id="Shape" fill="#EBEBEB"></path>
            <path d="M2.5,-5e-07 C1.115,-5e-07 0,1.1149995 0,2.4999995 L0,3.5 C0,2.1149995 1.115,0.9999995 2.5,0.9999995 L25,0.9999995 C25,-5e-07 25,0.9999995 25,-5e-07 L2.5,-5e-07 Z" id="Shape" fill="#FFFFFF" opacity="0.2"></path>
        </g>
    </g>
</svg>