<?xml version="1.0" encoding="UTF-8"?>
<svg width="40px" height="51px" viewBox="0 0 40 51" version="1.1" xmlns="http://www.w3.org/2000/svg" xmlns:xlink="http://www.w3.org/1999/xlink">
    <!-- Generator: Sketch 49.3 (51167) - http://www.bohemiancoding.com/sketch -->
    <title>zip</title>
    <desc>Created with Sketch.</desc>
    <defs></defs>
    <g id="icons" stroke="none" stroke-width="1" fill="none" fill-rule="evenodd">
        <g id="zip" fill-rule="nonzero">
            <path d="M2.5,1 C1.115,1 0,2.115 0,3.5 L0,48.5 C0,49.885 1.115,51 2.5,51 L37.5,51 C38.885,51 40,49.885 40,48.5 L40,16 L26.25,14.75 L25,1 L2.5,1 Z" id="Shape" fill="#000000" opacity="0.2"></path>
            <path d="M2.5,0 C1.115,0 0,1.115 0,2.5 L0,47.5 C0,48.885 1.115,50 2.5,50 L37.5,50 C38.885,50 40,48.885 40,47.5 L40,15 L26.25,13.75 L25,0 L2.5,0 Z" id="Shape" fill="#95C162"></path>
            <path d="M25,1 L25,13.5 C25,14.8808 26.1193,16 27.5,16 L40,16 L25,1 Z" id="Shape" fill="#000000" opacity="0.2"></path>
            <path d="M25,0 L25,12.5 C25,13.8808 26.1193,15 27.5,15 L40,15 L25,0 Z" id="Shape" fill="#C6DDAB"></path>
            <path d="M20,25 C17.789334,25 16,26.8 16,29 L16,37 C16,39.2 17.79,41 20,41 C22.21,41 24,39.2 24,37 L24,29 C24,26.8 22.210666,25 20,25 Z M20,27 C21.104,27 22,27.8 22,29 C22,29.999998 21.104,31 20,31 C18.896,31 18,29.999998 18,29 C18,27.8 18.896,27 20,27 Z M20,33 C21.10457,33 22,33.89543 22,35 L22,37 C22,38.10457 21.10457,39 20,39 C18.89543,39 18,38.10457 18,37 L18,35 C18,33.89543 18.89543,33 20,33 Z" id="Shape" fill="#000000" opacity="0.2"></path>
            <path d="M18,0 L18,22 C18,23.1 18.895,24 20,24 C21.105,24 22,23.1 22,22 L22,0 L18,0 Z" id="Shape" fill="#000000" opacity="0.2"></path>
            <path d="M19,5 L19,6 L20,6 L20,5 L19,5 Z M20,6 L20,7 L21,7 L21,6 L20,6 Z M20,7 L19,7 L19,8 L20,8 L20,7 Z M20,8 L20,9 L21,9 L21,8 L20,8 Z M20,9 L19,9 L19,10 L20,10 L20,9 Z M20,10 L20,11 L21,11 L21,10 L20,10 Z M20,11 L19,11 L19,12 L20,12 L20,11 Z M20,12 L20,13 L21,13 L21,12 L20,12 Z M20,13 L19,13 L19,14 L20,14 L20,13 Z M20,14 L20,15 L21,15 L21,14 L20,14 Z" id="Shape" fill="#000000" opacity="0.2"></path>
            <path d="M19,6 L19,7 L20,7 L20,6 L19,6 Z M19,8 L19,9 L20,9 L20,8 L19,8 Z M19,10 L19,11 L20,11 L20,10 L19,10 Z M19,12 L19,13 L20,13 L20,12 L19,12 Z M19,14 L19,15 L20,15 L20,14 L19,14 Z" id="Shape" fill="#DDDDDD"></path>
            <path d="M19,16 L20,16 C20.04125,15.632471 20,15 20,15 L19,15 L19,16 Z M20,16 L20,17 L21,17 L21,16 L20,16 Z M20,17 L19,17 L19,18 L20,18 L20,17 Z M20,18 L20,19 L21,19 L21,18 L20,18 Z M20,19 L19,19 L19,20 L20,20 L20,19 Z M20,20 L20,21 L21,21 L21,20 L20,20 Z M20,21 L19,21 L19,22 L20,22 L20,21 Z M20,22 L20,23 L21,23 L21,22 L20,22 Z M20,23 L19,23 C18.95626,23.389771 19,24 19,24 L20,24 C20,24 20,23.47021 20,23 Z" id="Shape" fill="#000000" opacity="0.2"></path>
            <path d="M19,16 L19,17 L20,17 L20,16 L19,16 Z M19,18 L19,19 L20,19 L20,18 L19,18 Z M19,20 L19,21 L20,21 L20,20 L19,20 Z M19,22 L19,23 L20,23 L20,22 L19,22 Z" id="Shape" fill="#DDDDDD"></path>
            <path d="M20,24 C17.789334,24 16,25.8 16,28 L16,36 C16,38.2 17.79,40 20,40 C22.21,40 24,38.2 24,36 L24,28 C24,25.8 22.210666,24 20,24 Z M20,26 C21.104,26 22,26.8 22,28 C22,28.999998 21.104,30 20,30 C18.896,30 18,28.999998 18,28 C18,26.8 18.896,26 20,26 Z M20,32 C21.10457,32 22,32.89543 22,34 L22,36 C22,37.10457 21.10457,38 20,38 C18.89543,38 18,37.10457 18,36 L18,34 C18,32.89543 18.89543,32 20,32 Z" id="Shape" fill="#FFFFFF"></path>
            <path d="M2.5,0 C1.115,0 0,1.115 0,2.5 L0,3.5 C0,2.115 1.115,1 2.5,1 L25,1 L25,0 L2.5,0 Z" id="Shape" fill="#FFFFFF" opacity="0.2"></path>
            <path d="M19,0 L19,1 L20,1 L20,0 L19,0 Z M19,2 L19,3 L20,3 L20,2 L19,2 Z M19,4 L19,5 L20,5 L20,4 L19,4 Z" id="Shape" fill="#DDDDDD"></path>
            <path d="M20,0 L20,1 L21,1 L21,0 L20,0 Z M20,1 L19,1 L19,2 L20,2 L20,1 Z M20,2 L20,3 L21,3 L21,2 L20,2 Z M20,3 L19,3 L19,4 L20,4 L20,3 Z M20,4 L20,5 L21,5 L21,4 L20,4 Z" id="Shape" fill="#000000" opacity="0.2"></path>
        </g>
    </g>
</svg>