<svg xmlns="http://www.w3.org/2000/svg" viewBox="0 0 210.39 43"><defs><style>.cls-1{fill:#fff;}</style></defs><title>Middel 13</title><g id="Laag_2" data-name="Laag 2"><g id="Laag_1-2" data-name="Laag 1"><path class="cls-1" d="M9.73,2.93a6.81,6.81,0,0,0-6.8,6.8V33.27a6.82,6.82,0,0,0,6.8,6.81H33.27a6.82,6.82,0,0,0,6.81-6.81V9.73a6.82,6.82,0,0,0-6.81-6.8ZM33.27,43H9.73A9.74,9.74,0,0,1,0,33.27V9.73A9.75,9.75,0,0,1,9.73,0H33.27A9.74,9.74,0,0,1,43,9.73V33.27A9.73,9.73,0,0,1,33.27,43"/><path class="cls-1" d="M34,14a3.58,3.58,0,1,1-3.58-3.58A3.58,3.58,0,0,1,34,14"/><path class="cls-1" d="M33.44,30.15A2.4,2.4,0,0,1,31,32.54H29.89a2.4,2.4,0,0,1-2.4-2.39V21.73a2.41,2.41,0,0,1,2.4-2.4H31a2.41,2.41,0,0,1,2.4,2.4v8.42Z"/><path class="cls-1" d="M25.08,14a3.58,3.58,0,1,1-3.58-3.58A3.58,3.58,0,0,1,25.08,14"/><path class="cls-1" d="M24.47,30.15a2.39,2.39,0,0,1-2.39,2.39H20.93a2.39,2.39,0,0,1-2.4-2.39V21.73a2.4,2.4,0,0,1,2.4-2.4h1.15a2.4,2.4,0,0,1,2.39,2.4v8.42Z"/><path class="cls-1" d="M16.12,14a3.58,3.58,0,1,1-3.58-3.58A3.59,3.59,0,0,1,16.12,14"/><path class="cls-1" d="M15.51,30.15a2.39,2.39,0,0,1-2.4,2.39H12a2.39,2.39,0,0,1-2.4-2.39V21.73a2.4,2.4,0,0,1,2.4-2.4h1.14a2.4,2.4,0,0,1,2.4,2.4v8.42Z"/><path class="cls-1" d="M65.11,19.58H71.9v8.17a10.49,10.49,0,0,1-3.22,1.62,12.64,12.64,0,0,1-3.63.51,12.42,12.42,0,0,1-4.42-.75A10.14,10.14,0,0,1,57.25,27a9.26,9.26,0,0,1-2.17-3.21,10.51,10.51,0,0,1-.76-4,11,11,0,0,1,.73-4.08,9,9,0,0,1,2.08-3.19A9.51,9.51,0,0,1,60.4,10.4a11.63,11.63,0,0,1,4.29-.75,12.76,12.76,0,0,1,2.29.2,11,11,0,0,1,2,.54,9.52,9.52,0,0,1,3,1.88L70.77,14.1a1.09,1.09,0,0,1-.71.53,1.3,1.3,0,0,1-1-.22q-.49-.3-1-.54a7.61,7.61,0,0,0-1-.41A7.3,7.3,0,0,0,66,13.18a10.28,10.28,0,0,0-1.44-.09,6.3,6.3,0,0,0-2.5.48,5.08,5.08,0,0,0-1.9,1.35A5.88,5.88,0,0,0,58.93,17a8.43,8.43,0,0,0-.42,2.74A8.62,8.62,0,0,0,59,22.69a6.12,6.12,0,0,0,1.31,2.17,5.56,5.56,0,0,0,2,1.35,7.07,7.07,0,0,0,2.62.47,7.22,7.22,0,0,0,1.76-.2,8.42,8.42,0,0,0,1.5-.54V22.61H66a.89.89,0,0,1-.63-.21.7.7,0,0,1-.22-.54Z"/><path class="cls-1" d="M78.77,17.89A6.37,6.37,0,0,1,80.31,16a3.22,3.22,0,0,1,2-.7,2.52,2.52,0,0,1,1.55.45l-.24,2.79a.68.68,0,0,1-.21.37.67.67,0,0,1-.39.1,4.6,4.6,0,0,1-.63-.06,5.27,5.27,0,0,0-.76-.06,2.67,2.67,0,0,0-.93.15,2.25,2.25,0,0,0-.71.43,3.08,3.08,0,0,0-.57.66A7.55,7.55,0,0,0,79,21v8.61H75.24V15.57h2.22a1.19,1.19,0,0,1,.79.2,1.34,1.34,0,0,1,.32.71Z"/><path class="cls-1" d="M91.29,15.14a7.85,7.85,0,0,1,2.88.51,6.45,6.45,0,0,1,2.22,1.44,6.23,6.23,0,0,1,1.43,2.27,8.43,8.43,0,0,1,.51,3,8.5,8.5,0,0,1-.51,3,6.23,6.23,0,0,1-3.65,3.73,8.6,8.6,0,0,1-5.78,0,6.29,6.29,0,0,1-2.23-1.45,6.52,6.52,0,0,1-1.44-2.28,8.5,8.5,0,0,1-.51-3,8.43,8.43,0,0,1,.51-3,6.23,6.23,0,0,1,3.67-3.71A7.92,7.92,0,0,1,91.29,15.14Zm0,11.67a2.73,2.73,0,0,0,2.39-1.11,5.78,5.78,0,0,0,.78-3.31,5.76,5.76,0,0,0-.78-3.3A2.73,2.73,0,0,0,91.29,18a2.77,2.77,0,0,0-2.43,1.11,5.76,5.76,0,0,0-.78,3.3,5.78,5.78,0,0,0,.78,3.31A2.77,2.77,0,0,0,91.29,26.81Z"/><path class="cls-1" d="M113,15.35V29.41h-2.32a.88.88,0,0,1-.93-.65l-.25-1a10.15,10.15,0,0,1-.87.75,5.22,5.22,0,0,1-1,.58,4.85,4.85,0,0,1-1.11.39,5.72,5.72,0,0,1-1.28.13,5,5,0,0,1-2-.39,4.09,4.09,0,0,1-1.5-1.11,4.82,4.82,0,0,1-.91-1.69,7,7,0,0,1-.32-2.16V15.35h3.77v8.93a2.79,2.79,0,0,0,.54,1.83,2,2,0,0,0,1.6.64,3.32,3.32,0,0,0,1.49-.34,5.78,5.78,0,0,0,1.32-.95V15.35Z"/><path class="cls-1" d="M119,17.09a8.11,8.11,0,0,1,.9-.86,5.55,5.55,0,0,1,1-.66,5.21,5.21,0,0,1,1.18-.44,5.34,5.34,0,0,1,1.36-.16,4.4,4.4,0,0,1,2.08.49,4.54,4.54,0,0,1,1.63,1.4,7.07,7.07,0,0,1,1.07,2.26,11.33,11.33,0,0,1,.38,3.06,9.41,9.41,0,0,1-.43,2.92A7.17,7.17,0,0,1,127,27.43a5.74,5.74,0,0,1-1.9,1.53,5.51,5.51,0,0,1-2.48.56,4.87,4.87,0,0,1-1.94-.35,4.67,4.67,0,0,1-1.43-.92v5.6h-3.77V15.24h2.32a.92.92,0,0,1,1,.66Zm.22,8.51a3,3,0,0,0,1.15.86,3.69,3.69,0,0,0,1.33.24,2.92,2.92,0,0,0,1.24-.25,2.53,2.53,0,0,0,1-.82,4.28,4.28,0,0,0,.62-1.41,8.6,8.6,0,0,0,.22-2,9.42,9.42,0,0,0-.19-2,3.83,3.83,0,0,0-.52-1.32,1.94,1.94,0,0,0-.81-.73,2.45,2.45,0,0,0-1.06-.22,3.28,3.28,0,0,0-1.67.38,4.64,4.64,0,0,0-1.28,1.14Z"/><path class="cls-1" d="M156.38,19.26a10.76,10.76,0,0,1-.73,4,9.28,9.28,0,0,1-5.26,5.33,11.54,11.54,0,0,1-8.29,0,9.32,9.32,0,0,1-5.28-5.33,11.43,11.43,0,0,1,0-8,9.49,9.49,0,0,1,2.07-3.2,9.66,9.66,0,0,1,3.21-2.12,11.54,11.54,0,0,1,8.29,0,9.64,9.64,0,0,1,3.2,2.13,9.42,9.42,0,0,1,2.06,3.21A10.7,10.7,0,0,1,156.38,19.26Zm-4.19,0a8.62,8.62,0,0,0-.41-2.79,5.82,5.82,0,0,0-1.18-2.1,4.9,4.9,0,0,0-1.87-1.32,7,7,0,0,0-5,0,5,5,0,0,0-1.88,1.32,6,6,0,0,0-1.18,2.1,8.9,8.9,0,0,0-.41,2.79,8.92,8.92,0,0,0,.41,2.8,5.89,5.89,0,0,0,1.18,2.1,5.1,5.1,0,0,0,1.88,1.31,7,7,0,0,0,5,0,5,5,0,0,0,1.87-1.31,5.74,5.74,0,0,0,1.18-2.1A8.64,8.64,0,0,0,152.19,19.26Z"/><path class="cls-1" d="M159.38,29.63V18.27l-1.09-.19a1.68,1.68,0,0,1-.69-.3.8.8,0,0,1-.26-.63v-1.5h2v-.93a6,6,0,0,1,.38-2.17,4.62,4.62,0,0,1,1.07-1.66,4.77,4.77,0,0,1,1.7-1,6.81,6.81,0,0,1,2.28-.37,7.07,7.07,0,0,1,.94.06,7.46,7.46,0,0,1,.89.19l-.08,1.85a.58.58,0,0,1-.36.56,2.22,2.22,0,0,1-.75.13,4.1,4.1,0,0,0-1,.12,1.84,1.84,0,0,0-.77.41,1.76,1.76,0,0,0-.47.8,3.92,3.92,0,0,0-.17,1.23v.82h3.49v2.62h-3.37V29.63Z"/><path class="cls-1" d="M170.12,29.63V18.27L169,18.08a1.68,1.68,0,0,1-.69-.3.77.77,0,0,1-.27-.63v-1.5h2.05v-.93a6,6,0,0,1,.38-2.17,4.49,4.49,0,0,1,1.07-1.66,4.77,4.77,0,0,1,1.7-1,6.81,6.81,0,0,1,2.28-.37,7.07,7.07,0,0,1,.94.06,7.46,7.46,0,0,1,.89.19l-.08,1.85a.58.58,0,0,1-.36.56,2.22,2.22,0,0,1-.75.13,4.1,4.1,0,0,0-1,.12,1.69,1.69,0,0,0-1.25,1.21,4.27,4.27,0,0,0-.16,1.23v.82h3.49v2.62h-3.37V29.63Z"/><path class="cls-1" d="M183.27,11.57a2.06,2.06,0,0,1-.19.89,2.61,2.61,0,0,1-.51.72,2.39,2.39,0,0,1-1.67.67,2.2,2.2,0,0,1-.88-.18,2.29,2.29,0,0,1-.73-.49,2.39,2.39,0,0,1-.5-.72,2.21,2.21,0,0,1-.18-.89,2.18,2.18,0,0,1,.18-.89,2.31,2.31,0,0,1,.5-.73,2.13,2.13,0,0,1,.73-.49,2.2,2.2,0,0,1,.88-.18,2.36,2.36,0,0,1,.92.18,2.22,2.22,0,0,1,.75.49,2.52,2.52,0,0,1,.51.73A2,2,0,0,1,183.27,11.57Zm-.45,4V29.63h-3.76V15.57Z"/><path class="cls-1" d="M195.77,18.5a1.28,1.28,0,0,1-.33.33A.76.76,0,0,1,195,19a.94.94,0,0,1-.53-.16l-.58-.34a5.85,5.85,0,0,0-.78-.34A3.52,3.52,0,0,0,192,18a3.32,3.32,0,0,0-1.47.31,2.74,2.74,0,0,0-1,.88,4,4,0,0,0-.61,1.39,8,8,0,0,0-.2,1.85,5.4,5.4,0,0,0,.87,3.3,2.82,2.82,0,0,0,2.37,1.14,3.87,3.87,0,0,0,.89-.09,3.4,3.4,0,0,0,.66-.22,2.8,2.8,0,0,0,.48-.3l.39-.3a2.06,2.06,0,0,1,.37-.23.91.91,0,0,1,.41-.09.83.83,0,0,1,.69.33l1.07,1.37a6.53,6.53,0,0,1-1.28,1.15,7,7,0,0,1-1.41.72,7.13,7.13,0,0,1-1.48.37,10.76,10.76,0,0,1-1.49.1,6.33,6.33,0,0,1-2.45-.48,5.75,5.75,0,0,1-2-1.41,6.82,6.82,0,0,1-1.38-2.28,8.69,8.69,0,0,1-.51-3.08,8.86,8.86,0,0,1,.45-2.87,6.49,6.49,0,0,1,1.32-2.29,5.91,5.91,0,0,1,2.16-1.52,7.47,7.47,0,0,1,3-.56,7.25,7.25,0,0,1,2.83.52,7,7,0,0,1,2.18,1.5Z"/><path class="cls-1" d="M201.1,23a4.48,4.48,0,0,0,1.12,2.89,3.42,3.42,0,0,0,2.48.91A4.39,4.39,0,0,0,206,26.6a7.39,7.39,0,0,0,1-.41l.78-.41a1.5,1.5,0,0,1,.69-.19.81.81,0,0,1,.68.33l1.09,1.37A6.2,6.2,0,0,1,209,28.44a7.72,7.72,0,0,1-1.51.72,7.86,7.86,0,0,1-1.56.37,11.66,11.66,0,0,1-1.53.1,7.76,7.76,0,0,1-2.75-.48,6.19,6.19,0,0,1-2.22-1.43,6.77,6.77,0,0,1-1.5-2.36,9,9,0,0,1-.54-3.26,7.59,7.59,0,0,1,.47-2.7,6.27,6.27,0,0,1,3.51-3.7,7.51,7.51,0,0,1,5.35-.13,5.42,5.42,0,0,1,3.25,3.26,7.51,7.51,0,0,1,.46,2.73,6.12,6.12,0,0,1,0,.69,1.42,1.42,0,0,1-.14.44.47.47,0,0,1-.26.22,1.22,1.22,0,0,1-.42.07ZM207,20.74a3.75,3.75,0,0,0-.16-1.12,2.44,2.44,0,0,0-.5-.94,2.26,2.26,0,0,0-.86-.65,2.92,2.92,0,0,0-1.24-.24,2.88,2.88,0,0,0-2.11.76,3.93,3.93,0,0,0-1,2.19Z"/></g></g></svg>