<?xml version="1.0" encoding="UTF-8"?>
<svg width="56px" height="59px" viewBox="0 0 56 59" version="1.1" xmlns="http://www.w3.org/2000/svg" xmlns:xlink="http://www.w3.org/1999/xlink">
    <!-- Generator: Sketch 49.3 (51167) - http://www.bohemiancoding.com/sketch -->
    <title>Group</title>
    <desc>Created with Sketch.</desc>
    <defs></defs>
    <g id="icons" stroke="none" stroke-width="1" fill="none" fill-rule="evenodd">
        <g id="Group" fill-rule="nonzero">
            <path d="M0.0002398,52.999377 L0.0002398,54.999331 C0.0002398,57.47405 1.365715,58.571814 2.9649424,58.886004 L2.8009478,59 L53.199292,59 L53.007898,58.867184 C55.968401,58.242485 56,55.000111 56,55.000111 L56,53.000177 C56,53.000177 55.96842,56.242471 53.007898,56.86725 L53.199892,56.999246 L2.8015478,56.999246 L2.9655424,56.885249 C1.3663949,56.57126 0.0008398,55.473296 0.0008398,52.999377 L0.0002398,52.999377 Z" id="Shape" fill="#000000" opacity="0.2"></path>
            <path d="M1.274198,19.654525 C1.2167,19.691925 1.1645816,19.736125 1.1101234,19.777521 L1.0773244,19.802121 L1.0773244,19.806121 C0.4255459,20.317905 -2.00000002e-07,21.105099 -2.00000002e-07,22.001849 L2.98e-05,46.399048 C-2.00000002e-07,50.398916 3.1541262,50.398916 3.9998984,50.398916 L51.998322,50.398916 C51.998322,50.398916 55.99819,50.398916 55.99819,46.399048 L55.99815,22.001849 C55.99815,21.084859 55.554405,20.280786 54.877107,19.770723 L54.889107,19.754723 L27.99999,0.0033709 C27.99999,0.0033709 1.1108733,19.779921 1.2748679,19.656925 L1.274198,19.654525 Z" id="Shape" fill="#595959"></path>
            <rect id="Rectangle-path" fill="#EDEDED" x="6" y="6" width="43.999" height="35.999" rx="3"></rect>
            <path d="M8.999944,6.0029738 C7.337999,6.0029738 6.000043,7.34033 6.000043,9.000875 L6.000043,10.000843 C6.000043,8.340297 7.337999,7.002941 8.999944,7.002941 L46.998696,7.002941 C48.660641,7.002941 49.998597,8.340297 49.998597,10.000843 L49.998597,9.000875 C49.998597,7.34033 48.660641,6.0029738 46.998696,6.0029738 L8.999944,6.0029738 Z" id="Shape" fill="#FFFFFF" opacity="0.1"></path>
            <path d="M0.0002398,22.000448 L51.998532,57.999266 L4.0001084,57.999266 C2.0001741,57.99925 0.0002398,57.010298 0.0002398,54.043396 L0.0002398,22.000448 Z" id="Shape" fill="#606060"></path>
            <path d="M51.998532,57.999266 C55.9984,57.999266 55.9984,54.043396 55.9984,54.043396 L55.9984,22.000448 L4.0001084,57.999266 L51.998532,57.999266 Z" id="Shape" fill="#797979"></path>
            <path d="M27.99932,12.000777 C22.4766543,12.0007773 17.9996493,16.4777823 17.999649,22.000448 C17.9996489,24.6525258 19.0531825,27.1959814 20.9284846,29.0712837 C22.8037867,30.9465859 25.3472422,32.0001199 27.99932,32.00012 L34.99909,32.00012 C35.553072,32.00012 35.999057,31.554134 35.999057,31.000153 C35.999057,30.446171 35.553072,30.000185 34.99909,30.000185 L27.99932,30.000185 C23.5811873,30.0001849 19.9995831,26.4185807 19.999583,22.000448 C19.9995831,17.5823153 23.5811873,14.0007111 27.99932,14.000711 C32.4174527,14.0007111 35.9990569,17.5823153 35.999057,22.000448 L35.999057,25.00035 C35.999057,25.554332 35.553072,26.000317 34.99909,26.000317 C34.445108,26.000317 33.999123,25.554332 33.999123,25.00035 L33.999123,22.000448 C33.999123,20.4092013 33.3670027,18.8831279 32.2418214,17.7579466 C31.1166401,16.6327653 29.5905667,16.000645 27.99932,16.000645 C26.4080733,16.000645 24.8819999,16.6327653 23.7568186,17.7579466 C22.6316373,18.8831279 21.999517,20.4092013 21.999517,22.000448 C21.999517,23.5916947 22.6316373,25.1177681 23.7568186,26.2429494 C24.8819999,27.3681307 26.4080733,28.000251 27.99932,28.000251 C29.6006489,27.9990263 31.1350429,27.357719 32.26098,26.21907 C32.726965,27.269035 33.77293,28.001011 34.99889,28.001011 C36.660835,28.001011 37.998792,26.663055 37.998792,25.00111 L37.998792,22.001208 C37.9987919,19.3491302 36.9452579,16.8056747 35.0699557,14.9303726 C33.1946534,13.0550705 30.6511978,12.0015369 27.99912,12.001537 L27.99932,12.000777 Z M27.99932,18.00058 C30.2083864,18.0005798 31.9991887,19.7913816 31.999189,22.000448 C31.9991891,23.0612792 31.5777756,24.0786616 30.8276546,24.8287826 C30.0775336,25.5789036 29.0601512,26.0003171 27.99932,26.000317 C26.9384888,26.0003171 25.9211064,25.5789036 25.1709854,24.8287826 C24.4208644,24.0786616 23.9994509,23.0612792 23.999451,22.000448 C23.9994513,19.7913816 25.7902536,18.0005798 27.99932,18.00058 Z" id="Shape" fill="#8F8F8F"></path>
        </g>
    </g>
</svg>