<?xml version="1.0" encoding="UTF-8"?>
<svg width="40px" height="51px" viewBox="0 0 40 51" version="1.1" xmlns="http://www.w3.org/2000/svg" xmlns:xlink="http://www.w3.org/1999/xlink">
    <!-- Generator: Sketch 49.3 (51167) - http://www.bohemiancoding.com/sketch -->
    <title>gpg</title>
    <desc>Created with Sketch.</desc>
    <defs></defs>
    <g id="icons" stroke="none" stroke-width="1" fill="none" fill-rule="evenodd">
        <g id="gpg" fill-rule="nonzero">
            <path d="M2.5,1 C1.115,1 0,2.115 0,3.5 L0,48.5 C0,49.885 1.115,51 2.5,51 L37.5,51 C38.885,51 40,49.885 40,48.5 L40,16 L26.25,14.75 L25,1 L2.5,1 Z" id="Shape" fill="#000000" opacity="0.2"></path>
            <path d="M2.5,0 C1.115,0 0,1.115 0,2.5 L0,47.5 C0,48.885 1.115,50 2.5,50 L37.5,50 C38.885,50 40,48.885 40,47.5 L40,15 L26.25,13.75 L25,0 L2.5,0 Z" id="Shape" fill="#D9D9D9"></path>
            <path d="M25,1 L25,13.5 C25,14.8808 26.1193,16 27.5,16 L40,16 L25,1 Z" id="Shape" fill="#000000" opacity="0.2"></path>
            <path d="M25,0 L25,12.5 C25,13.8808 26.1193,15 27.5,15 L40,15 L25,0 Z" id="Shape" fill="#EDEDED"></path>
            <path d="M20,22 C16.7684,22 14,23.602 14,26.8032 L14,29.9997 L12.4575,29.9997 C11.6495,29.9997 10.9995,29.9997 10.9995,30.9997 L10.9995,39.5715 C10.9995,40.9995 11.6495,40.9995 12.4575,40.9995 L27.0425,40.9995 C27.8495,40.9995 28.9995,40.9995 28.9995,39.5705 L28.9995,30.9995 C28.9995,29.9995 27.8499,29.99975 27.042,29.99975 L25.9995,29.99975 L25.9995,26.80325 C25.9995,23.60325 23.2305,21.99925 19.9995,21.99925 L20,22 Z M20,25 C22,24.98466 23,26 23,27.25 L23,30.0002 L17,30.0002 L17,27.2502 C17,26.0002 18,25.0152 20,25.0002 L20,25 Z" id="Shape" fill="#8F8F8F"></path>
            <path d="M2.5,0 C1.115,0 0,1.115 0,2.5 L0,3.5 C0,2.115 1.115,1 2.5,1 L25,1 C25,0 25,1 25,0 L2.5,0 Z" id="Shape" fill="#FFFFFF" opacity="0.2"></path>
        </g>
    </g>
</svg>