<?xml version="1.0" encoding="UTF-8"?>
<svg width="56px" height="57px" viewBox="0 0 56 57" version="1.1" xmlns="http://www.w3.org/2000/svg" xmlns:xlink="http://www.w3.org/1999/xlink">
    <!-- Generator: Sketch 49.3 (51167) - http://www.bohemiancoding.com/sketch -->
    <title>ics</title>
    <desc>Created with Sketch.</desc>
    <defs></defs>
    <g id="icons" stroke="none" stroke-width="1" fill="none" fill-rule="evenodd">
        <g id="ics" fill-rule="nonzero">
            <path d="M0,13 L0,54.199218 C0,55.750418 1.249582,57 2.800782,57 L53.199218,57 C54.750418,57 56,55.750418 56,54.199218 L56,13 L0,13 Z" id="Shape" fill="#000000" opacity="0.2"></path>
            <path d="M0,12 L0,53.199218 C0,54.750418 1.249582,56 2.800782,56 L53.199218,56 C54.750418,56 56,54.750418 56,53.199218 L56,12 L0,12 Z" id="Shape" fill="#EA726B"></path>
            <path d="M56,13 L56,3.8 C56,2.2488 54.7512,1 53.2,1 L2.8,1 C1.2488,1 0,2.2488 0,3.8 L0,13 L56,13 Z" id="Shape" fill="#000000" opacity="0.2"></path>
            <path d="M56,12 L56,2.8 C56,1.2488 54.7512,0 53.2,0 L2.8,0 C1.2488,0 0,1.2488 0,2.8 L0,12 L56,12 Z" id="Shape" fill="#CCCCCC"></path>
            <path d="M14.167969,20.826379 C13.803786,20.823179 13.450798,20.827979 13.111328,20.838099 C11.75345,20.878463 10.626722,21.000207 10,21.000207 L10,25.000207 C11.953356,25.000207 14.700263,24.641127 16.796875,25.076377 C17.845181,25.294004 18.625536,25.670483 19.125,26.197471 C19.624464,26.72446 20,27.460847 20,29.000205 C20,30.62633 19.655805,31.486767 19.285156,31.98458 C18.914507,32.482393 18.447818,32.752645 17.705078,32.943564 C17.17362,33.080174 16.47024,33.063874 15.789062,33.066611 C14.801219,32.958273 13.755836,32.829934 13.056641,32.85958 C12.548613,32.88112 12.154711,32.91801 11.84375,32.965049 C11.688269,32.988569 11.7517,32.902589 11.191406,33.131064 C11.121366,33.159624 11.035057,33.195364 10.886719,33.287314 C10.812549,33.333284 10.721988,33.394133 10.605469,33.498252 C10.48895,33.60237 10.189744,34.015308 10.189453,34.01583 C10.189162,34.016352 9.943316,35.171595 9.943359,35.17208 C9.943403,35.172565 10.413681,36.28882 10.414062,36.289267 C10.414445,36.289715 10.808609,36.653753 10.951172,36.73458 C11.093735,36.81541 11.199474,36.855278 11.285156,36.884971 C11.970617,37.122511 11.89861,37.000205 12,37.000205 C12.819501,37.000205 14.336345,37.104979 16.001953,37.062705 C16.082533,37.077145 16.14248,37.061844 16.222656,37.078335 C17.312054,37.302265 18.313973,37.72212 18.951172,38.300991 C19.58837,38.879854 20,39.556589 20,41.000207 C20,42.452797 19.608428,43.099093 18.951172,43.670129 C18.293915,44.241165 17.197046,44.677467 15.859375,44.910363 C13.184032,45.376156 9.953356,45.000203 8,45.000203 L8,49.000203 C9.253444,49.000203 13.021965,49.465134 16.544922,48.851765 C18.3064,48.545083 20.107538,47.963935 21.574219,46.689656 C23.0409,45.415381 24,43.389297 24,41.000207 C24,38.602145 23.03663,36.606495 21.642578,35.340051 C21.603228,35.304301 21.555428,35.292711 21.515625,35.258021 C21.848487,34.972511 22.214404,34.746343 22.492188,34.373256 C23.495476,33.02575 24,31.215762 24,29.000207 C24,26.697885 23.276818,24.763848 22.027344,23.445519 C20.77787,22.127192 19.160219,21.482316 17.609375,21.160363 C16.446242,20.918899 15.260517,20.835882 14.167969,20.826379 Z M37.982422,21.000207 L32,23.000207 L32,27.000207 L38,25.000207 L38.01758,45.000207 L32,45.000207 L32,49.000207 L48,49.000207 L48,45.000207 L42,45.000207 L42,21.000207 L37.982422,21.000207 Z" id="Shape" fill="#000000" opacity="0.2"></path>
            <path d="M14.167969,19.826176 C13.803786,19.822976 13.450798,19.827776 13.111328,19.837896 C11.75345,19.87826 10.626722,20.000004 10,20.000004 L10,24.000004 C11.953356,24.000004 14.700263,23.640924 16.796875,24.076174 C17.845181,24.293801 18.625536,24.67028 19.125,25.197268 C19.624464,25.724257 20,26.460644 20,28.000002 C20,29.626127 19.655805,30.486564 19.285156,30.984377 C18.914507,31.48219 18.447818,31.752442 17.705078,31.943361 C17.17362,32.079971 16.47024,32.063671 15.789062,32.066408 C14.801219,31.95807 13.755836,31.829731 13.056641,31.859377 C12.548613,31.880917 12.154711,31.917807 11.84375,31.964846 C11.688269,31.988366 11.7517,31.902386 11.191406,32.130861 C11.121366,32.159421 11.035057,32.195161 10.886719,32.287111 C10.812549,32.333081 10.721988,32.39393 10.605469,32.498049 C10.48895,32.602167 10.189744,33.015105 10.189453,33.015627 C10.189162,33.016149 9.943316,34.171392 9.943359,34.171877 C9.943403,34.172362 10.413681,35.288617 10.414062,35.289064 C10.414445,35.289512 10.808609,35.65355 10.951172,35.734377 C11.093735,35.815207 11.199474,35.855075 11.285156,35.884768 C11.970617,36.122308 11.89861,36.000002 12,36.000002 C12.819501,36.000002 14.336345,36.104776 16.001953,36.062502 C16.082533,36.076942 16.14248,36.061641 16.222656,36.078132 C17.312054,36.302062 18.313973,36.721917 18.951172,37.300788 C19.58837,37.879651 20,38.556386 20,40.000004 C20,41.452594 19.608428,42.09889 18.951172,42.669926 C18.293915,43.240962 17.197046,43.677264 15.859375,43.91016 C13.184032,44.375953 9.953356,44 8,44 L8,48 C9.253444,48 13.021965,48.464931 16.544922,47.851562 C18.3064,47.54488 20.107538,46.963732 21.574219,45.689453 C23.0409,44.415178 24,42.389094 24,40.000004 C24,37.601942 23.03663,35.606292 21.642578,34.339848 C21.603228,34.304098 21.555428,34.292508 21.515625,34.257818 C21.848487,33.972308 22.214404,33.74614 22.492188,33.373053 C23.495476,32.025547 24,30.215559 24,28.000004 C24,25.697682 23.276818,23.763645 22.027344,22.445316 C20.77787,21.126989 19.160219,20.482113 17.609375,20.16016 C16.446242,19.918696 15.260517,19.835679 14.167969,19.826176 Z M37.982422,20.000004 L32,22.000004 L32,26.000004 L38,24.000004 L38.01758,44.000004 L32,44.000004 L32,48.000004 L48,48.000004 L48,44.000004 L42,44.000004 L42,20.000004 L37.982422,20.000004 Z" id="Shape" fill="#FFFFFF"></path>
            <path d="M2.8007812,0 C1.2495813,0 0,1.2495813 0,2.8007812 L0,3.8007812 C0,2.2495812 1.2495813,1 2.8007812,1 L53.199219,1 C54.750419,1 56,2.2495813 56,3.8007812 L56,2.8007812 C56,1.2495813 54.750419,0 53.199219,0 L2.8007812,0 Z" id="Shape" fill="#FFFFFF" opacity="0.2"></path>
        </g>
    </g>
</svg>