<?xml version="1.0" encoding="UTF-8"?>
<svg width="40px" height="51px" viewBox="0 0 40 51" version="1.1" xmlns="http://www.w3.org/2000/svg" xmlns:xlink="http://www.w3.org/1999/xlink">
    <!-- Generator: Sketch 49.3 (51167) - http://www.bohemiancoding.com/sketch -->
    <title>js</title>
    <desc>Created with Sketch.</desc>
    <defs></defs>
    <g id="icons" stroke="none" stroke-width="1" fill="none" fill-rule="evenodd">
        <g id="js">
            <path d="M2.5,0.9999998 C1.115,0.9999998 0,2.1149998 0,3.49999999 L0,48.4999998 C0,49.8849998 1.115,50.9999998 2.5,50.9999998 L37.5,50.9999998 C38.885,50.9999998 40,49.8849998 40,48.4999998 L40,15.9999999 L26.25,14.7499999 L25,0.9999998 L2.5,0.9999998 Z" id="Shape" fill="#000000" fill-rule="nonzero" opacity="0.2"></path>
            <path d="M2.5,0 C1.115,0 0,1.115 0,2.5 L0,47.5 C0,48.885 1.115,50 2.5,50 L37.5,50 C38.885,50 40,48.885 40,47.5 L40,15 L26.25,13.75 L25,0 L2.5,0 Z" id="Shape" fill="#607D8B" fill-rule="nonzero"></path>
            <path d="M25,0.9999998 L25,13.4999998 C25,14.8807998 26.1193,15.9999998 27.5,15.9999998 L40,15.9999998 L25,0.9999998 Z" id="Shape" fill="#000000" fill-rule="nonzero" opacity="0.2"></path>
            <path d="M25,0 L25,12.5 C25,13.8808 26.1193,15 27.5,15 L40,15 L25,0 Z" id="Shape" fill="#B1D1E0" fill-rule="nonzero"></path>
            <path d="M13.76,23.001323 C13.720927,23.0001399 13.68182,23.0008073 13.64281,23.003323 C13.5308521,23.0111381 13.4204713,23.0341346 13.31469,23.071683 C13.31469,23.071683 12.53843,23.328253 11.63889,23.802153 C10.73942,24.276063 9.64679,24.939853 8.94359,26.079453 C8.1608,27.347853 8.45796,28.704953 8.7014,29.516953 C8.94484,30.328993 9.0786,30.684153 8.85374,31.227853 C8.74393,31.493353 8.0704,32.073533 7.33424,32.434853 C6.59755,32.796283 5.92994,32.985633 5.92994,32.985633 C5.60906299,33.0687079 5.33473353,33.2769365 5.16814595,33.5638695 C5.00155836,33.8508025 4.95657131,34.1925695 5.04322,34.512933 C4.88609931,35.1683254 5.27958676,35.8296108 5.92994,36.003133 C5.92994,36.003133 6.59806,36.192553 7.33424,36.553913 C8.07044,36.915263 8.74404,37.497403 8.85374,37.762913 C9.07859,38.306563 8.94483,38.661753 8.7014,39.473813 C8.45796,40.285853 8.16081,41.642813 8.94359,42.911313 C9.64689,44.050913 10.73949,44.714713 11.63889,45.188613 C12.53836,45.662523 13.31469,45.919083 13.31469,45.919083 C13.7405723,46.0808013 14.2207018,45.9957445 14.5653405,45.6975254 C14.9099791,45.3993063 15.0636746,44.9359083 14.9656893,44.4904575 C14.8677041,44.0450067 14.533804,43.6891761 14.09594,43.563583 C14.09594,43.563583 13.5057,43.363743 12.79514,42.989363 C12.08456,42.614983 11.32354,42.038023 11.05494,41.602663 C10.75102,41.110203 10.85042,40.940443 11.07642,40.186663 C11.30241,39.432843 11.71093,38.180463 11.14478,36.811663 C10.64338,35.599463 9.64238,34.957863 8.74638,34.495263 C9.6424,34.032573 10.64338,33.391063 11.14478,32.178863 C11.71094,30.810063 11.30242,29.557663 11.07642,28.803863 C10.85043,28.050043 10.75103,27.880283 11.05494,27.387863 C11.32362,26.952493 12.08464,26.373563 12.79514,25.999163 C13.50572,25.624783 14.09594,25.426893 14.09594,25.426893 C14.6710763,25.2436073 15.030971,24.6723204 14.9485024,24.0735588 C14.8660337,23.4747972 14.3651467,23.0224118 13.76194,23.001893 L13.75994,23.001893 L13.76,23.001323 Z M25.235,23.001323 C24.6315267,23.0224672 24.130956,23.4757735 24.0494251,24.0749549 C23.9678941,24.6741362 24.3290992,25.2450455 24.90492,25.427123 C24.90492,25.427123 25.49512,25.625003 26.20572,25.999393 C26.91624,26.373793 27.67732,26.952693 27.94592,27.388093 C28.24983,27.880533 28.15043,28.050283 27.92444,28.804093 C27.69844,29.557873 27.28992,30.810293 27.85608,32.179093 C28.3575,33.391293 29.35848,34.032793 30.25448,34.495493 C29.35842,34.958143 28.35748,35.599693 27.85608,36.811893 C27.28993,38.180693 27.69845,39.433093 27.92444,40.186893 C28.15044,40.940693 28.24984,41.110443 27.94592,41.602893 C27.67729,42.038273 26.91622,42.615193 26.20572,42.989593 C25.49518,43.363973 24.90492,43.563813 24.90492,43.563813 C24.467056,43.6894061 24.1331559,44.0452367 24.0351707,44.4906875 C23.9371854,44.9361383 24.0908809,45.3995363 24.4355195,45.6977554 C24.7801582,45.9959745 25.2602877,46.0810313 25.68617,45.919313 C25.68617,45.919313 26.46248,45.662753 27.36197,45.188843 C28.26137,44.714883 29.35397,44.051143 30.05727,42.911543 C30.84004,41.643043 30.5429,40.286043 30.29946,39.474043 C30.05602,38.661943 29.92226,38.306743 30.14712,37.763143 C30.25688,37.497643 30.93045,36.915513 31.66662,36.554143 C32.4028,36.192783 33.07092,36.003363 33.07092,36.003363 C33.7212732,35.8298408 34.1147607,35.1685554 33.95764,34.513163 C34.0442887,34.1927995 33.9993016,33.8510325 33.8327141,33.5640995 C33.6661265,33.2771665 33.391797,33.0689379 33.07092,32.985863 C33.070921,32.985863 32.40331,32.796513 31.66662,32.435083 C30.93043,32.073723 30.25692,31.493543 30.14712,31.228083 C29.92227,30.684373 30.05602,30.329183 30.29946,29.517183 C30.5429,28.705143 30.84006,27.348083 30.05727,26.079683 C29.35407,24.940083 28.26147,24.276283 27.36197,23.802383 C26.46245,23.328483 25.68427,23.071913 25.68427,23.071913 C25.5788297,23.0345863 25.4688328,23.0117123 25.35727,23.003913 C25.3176581,23.0013397 25.2779458,23.0006723 25.23827,23.001913 C25.23697,23.001911 25.23567,23.001911 25.23437,23.001913 L25.235,23.001323 Z M19.5,28.001323 C18.1192881,28.001323 17,29.1206111 17,30.501323 C17,31.8820349 18.1192881,33.001323 19.5,33.001323 C20.8807119,33.001323 22,31.8820349 22,30.501323 C22,29.1206111 20.8807119,28.001323 19.5,28.001323 Z M19.5,35.501323 C18.1192,35.501323 17,36.620623 17,38.001323 C17,39.382023 18.1193,40.501323 19.5,40.501323 C20.38371,40.501323 20.75,43.001323 20.75,43.001323 C20.75,43.001323 22,38.498323 22,38.001323 C22,36.620523 20.8807,35.501323 19.5,35.501323 Z" id="Shape" fill="#000000" fill-rule="nonzero" opacity="0.2"></path>
            <path d="M13.76,22 C13.720927,21.9988169 13.68182,21.9994843 13.64281,22.002 C13.5308521,22.0098151 13.4204713,22.0328116 13.31469,22.07036 C13.31469,22.07036 12.53843,22.32693 11.63889,22.80083 C10.73942,23.27474 9.64679,23.93853 8.94359,25.07813 C8.1608,26.34653 8.45796,27.70363 8.7014,28.51563 C8.94484,29.32767 9.0786,29.68283 8.85374,30.22653 C8.74393,30.49203 8.0704,31.07221 7.33424,31.43353 C6.59755,31.79496 5.92994,31.98431 5.92994,31.98431 C5.60906299,32.0673849 5.33473353,32.2756135 5.16814595,32.5625465 C5.00155836,32.8494795 4.95657131,33.1912465 5.04322,33.51161 C4.88609931,34.1670024 5.27958676,34.8282878 5.92994,35.00181 C5.92994,35.00181 6.59806,35.19123 7.33424,35.55259 C8.07044,35.91394 8.74404,36.49608 8.85374,36.76159 C9.07859,37.30524 8.94483,37.66043 8.7014,38.47249 C8.45796,39.28453 8.16081,40.64149 8.94359,41.90999 C9.64689,43.04959 10.73949,43.71339 11.63889,44.18729 C12.53836,44.6612 13.31469,44.91776 13.31469,44.91776 C13.7405723,45.0794783 14.2207018,44.9944215 14.5653405,44.6962024 C14.9099791,44.3979833 15.0636746,43.9345853 14.9656893,43.4891345 C14.8677041,43.0436837 14.533804,42.6878531 14.09594,42.56226 C14.09594,42.56226 13.5057,42.36242 12.79514,41.98804 C12.08456,41.61366 11.32354,41.0367 11.05494,40.60134 C10.75102,40.10888 10.85042,39.93912 11.07642,39.18534 C11.30241,38.43152 11.71093,37.17914 11.14478,35.81034 C10.64338,34.59814 9.64238,33.95654 8.74638,33.49394 C9.6424,33.03125 10.64338,32.38974 11.14478,31.17754 C11.71094,29.80874 11.30242,28.55634 11.07642,27.80254 C10.85043,27.04872 10.75103,26.87896 11.05494,26.38654 C11.32362,25.95117 12.08464,25.37224 12.79514,24.99784 C13.50572,24.62346 14.09594,24.42557 14.09594,24.42557 C14.6710763,24.2422843 15.030971,23.6709974 14.9485024,23.0722358 C14.8660337,22.4734742 14.3651467,22.0210888 13.76194,22.00057 L13.75994,22.00057 L13.76,22 Z M25.235,22 C24.6315267,22.0211442 24.130956,22.4744505 24.0494251,23.0736319 C23.9678941,23.6728132 24.3290992,24.2437225 24.90492,24.4258 C24.90492,24.4258 25.49512,24.62368 26.20572,24.99807 C26.91624,25.37247 27.67732,25.95137 27.94592,26.38677 C28.24983,26.87921 28.15043,27.04896 27.92444,27.80277 C27.69844,28.55655 27.28992,29.80897 27.85608,31.17777 C28.3575,32.38997 29.35848,33.03147 30.25448,33.49417 C29.35842,33.95682 28.35748,34.59837 27.85608,35.81057 C27.28993,37.17937 27.69845,38.43177 27.92444,39.18557 C28.15044,39.93937 28.24984,40.10912 27.94592,40.60157 C27.67729,41.03695 26.91622,41.61387 26.20572,41.98827 C25.49518,42.36265 24.90492,42.56249 24.90492,42.56249 C24.467056,42.6880831 24.1331559,43.0439137 24.0351707,43.4893645 C23.9371854,43.9348153 24.0908809,44.3982133 24.4355195,44.6964324 C24.7801582,44.9946515 25.2602877,45.0797083 25.68617,44.91799 C25.68617,44.91799 26.46248,44.66143 27.36197,44.18752 C28.26137,43.71356 29.35397,43.04982 30.05727,41.91022 C30.84004,40.64172 30.5429,39.28472 30.29946,38.47272 C30.05602,37.66062 29.92226,37.30542 30.14712,36.76182 C30.25688,36.49632 30.93045,35.91419 31.66662,35.55282 C32.4028,35.19146 33.07092,35.00204 33.07092,35.00204 C33.7212732,34.8285178 34.1147607,34.1672324 33.95764,33.51184 C34.0442887,33.1914765 33.9993016,32.8497095 33.8327141,32.5627765 C33.6661265,32.2758435 33.391797,32.0676149 33.07092,31.98454 C33.070921,31.98454 32.40331,31.79519 31.66662,31.43376 C30.93043,31.0724 30.25692,30.49222 30.14712,30.22676 C29.92227,29.68305 30.05602,29.32786 30.29946,28.51586 C30.5429,27.70382 30.84006,26.34676 30.05727,25.07836 C29.35407,23.93876 28.26147,23.27496 27.36197,22.80106 C26.46245,22.32716 25.68427,22.07059 25.68427,22.07059 C25.5788297,22.0332633 25.4688328,22.0103893 25.35727,22.00259 C25.3176581,22.0000167 25.2779458,21.9993493 25.23827,22.00059 C25.23697,22.000588 25.23567,22.000588 25.23437,22.00059 L25.235,22 Z M19.5,27 C18.1192881,27 17,28.1192881 17,29.5 C17,30.8807119 18.1192881,32 19.5,32 C20.8807119,32 22,30.8807119 22,29.5 C22,28.1192881 20.8807119,27 19.5,27 Z M19.5,34.5 C18.1192,34.5 17,35.6193 17,37 C17,38.3807 18.1193,39.5 19.5,39.5 C20.38371,39.5 20.75,42 20.75,42 C20.75,42 22,37.497 22,37 C22,35.6192 20.8807,34.5 19.5,34.5 Z" id="Shape" fill="#FFFFFF"></path>
            <path d="M2.5,-2e-07 C1.115,-2e-07 0,1.1149998 0,2.4999998 L0,3.5 C0,2.1149998 1.115,0.9999998 2.5,0.9999998 L25,0.9999998 C25,-2e-07 25,0.9999998 25,-2e-07 L2.5,-2e-07 Z" id="Shape" fill="#FFFFFF" fill-rule="nonzero" opacity="0.1"></path>
        </g>
    </g>
</svg>