<?xml version="1.0" encoding="UTF-8"?>
<svg width="107px" height="132px" viewBox="0 0 107 132" version="1.1" xmlns="http://www.w3.org/2000/svg" xmlns:xlink="http://www.w3.org/1999/xlink">
    <!-- Generator: Sketch 50.2 (55047) - http://www.bohemiancoding.com/sketch -->
    <title>multiple files</title>
    <desc>Created with Sketch.</desc>
    <defs></defs>
    <g id="Visual-design-final" stroke="none" stroke-width="1" fill="none" fill-rule="evenodd">
        <g id="D---Files---Multiple-files-selected" transform="translate(-967.000000, -219.000000)" fill-rule="nonzero">
            <g id="multiple-files" transform="translate(967.000000, 219.000000)">
                <path d="M17.8988764,14.5508655 C14.6308989,14.5508655 12,17.1675433 12,20.4178561 L12,126.023687 C12,129.273999 14.6308989,131.890677 17.8988764,131.890677 L100.483146,131.890677 C103.751124,131.890677 106.382022,129.273999 106.382022,126.023687 L106.382022,49.752809 L73.9382022,46.8193137 L70.988764,14.5508655 L17.8988764,14.5508655 Z" id="Shape" fill="#000000" opacity="0.2"></path>
                <path d="M17.8988764,12 C14.6308989,12 12,14.6166778 12,17.8669906 L12,123.472821 C12,126.723134 14.6308989,129.339812 17.8988764,129.339812 L100.483146,129.339812 C103.751124,129.339812 106.382022,126.723134 106.382022,123.472821 L106.382022,47.2019435 L73.9382022,44.2684482 L70.988764,12 L17.8988764,12 Z" id="Shape" fill="#EDEDED"></path>
                <path d="M70.6699059,14.5508655 L70.6699059,44.3109626 C70.6699059,47.598382 73.334744,50.2629821 76.6219253,50.2629821 L106.382022,50.2629821 L70.6699059,14.5508655 Z" id="Shape" fill="#000000" opacity="0.2"></path>
                <path d="M70.6699059,12 L70.6699059,41.7600972 C70.6699059,45.0475166 73.334744,47.7121166 76.6219253,47.7121166 L106.382022,47.7121166 L70.6699059,12 Z" id="Shape" fill="#F5F5F5"></path>
                <path d="M17.8669906,12 C14.6166778,12 12,14.4378986 12,17.4661403 L12,19.6525964 C12,16.6243547 14.6166778,14.1864561 17.8669906,14.1864561 L70.6699059,14.1864561 C70.6699059,12 70.6699059,14.1864561 70.6699059,12 L17.8669906,12 Z" id="Shape" fill="#FFFFFF" opacity="0.2"></path>
                <path d="M11.8988764,8.55086547 C8.63089888,8.55086547 6,11.1675433 6,14.4178561 L6,120.023687 C6,123.273999 8.63089888,125.890677 11.8988764,125.890677 L94.4831461,125.890677 C97.7511236,125.890677 100.382022,123.273999 100.382022,120.023687 L100.382022,43.752809 L67.9382022,40.8193137 L64.988764,8.55086547 L11.8988764,8.55086547 Z" id="Shape" fill="#000000" opacity="0.2"></path>
                <path d="M11.8988764,6 C8.63089888,6 6,8.6166778 6,11.8669906 L6,117.472821 C6,120.723134 8.63089888,123.339812 11.8988764,123.339812 L94.4831461,123.339812 C97.7511236,123.339812 100.382022,120.723134 100.382022,117.472821 L100.382022,41.2019435 L67.9382022,38.2684482 L64.988764,6 L11.8988764,6 Z" id="Shape" fill="#EDEDED"></path>
                <path d="M64.6699059,8.55086547 L64.6699059,38.3109626 C64.6699059,41.598382 67.334744,44.2629821 70.6219253,44.2629821 L100.382022,44.2629821 L64.6699059,8.55086547 Z" id="Shape" fill="#000000" opacity="0.2"></path>
                <path d="M64.6699059,6 L64.6699059,35.7600972 C64.6699059,39.0475166 67.334744,41.7121166 70.6219253,41.7121166 L100.382022,41.7121166 L64.6699059,6 Z" id="Shape" fill="#F5F5F5"></path>
                <path d="M11.8669906,6 C8.6166778,6 6,8.43789857 6,11.4661403 L6,13.6525964 C6,10.6243547 8.6166778,8.18645612 11.8669906,8.18645612 L64.6699059,8.18645612 C64.6699059,6 64.6699059,8.18645612 64.6699059,6 L11.8669906,6 Z" id="Shape" fill="#FFFFFF" opacity="0.2"></path>
                <path d="M5.8988764,2.55086547 C2.63089888,2.55086547 0,5.16754327 0,8.41785606 L0,114.023687 C0,117.273999 2.63089888,119.890677 5.8988764,119.890677 L88.4831461,119.890677 C91.7511236,119.890677 94.3820225,117.273999 94.3820225,114.023687 L94.3820225,37.752809 L61.9382022,34.8193137 L58.988764,2.55086547 L5.8988764,2.55086547 Z" id="Shape" fill="#000000" opacity="0.2"></path>
                <path d="M5.8988764,0 C2.63089888,0 0,2.6166778 0,5.86699059 L0,111.472821 C0,114.723134 2.63089888,117.339812 5.8988764,117.339812 L88.4831461,117.339812 C91.7511236,117.339812 94.3820225,114.723134 94.3820225,111.472821 L94.3820225,35.2019435 L61.9382022,32.2684482 L58.988764,0 L5.8988764,0 Z" id="Shape" fill="#D9D9D9"></path>
                <path d="M58.6699059,2.55086547 L58.6699059,32.3109626 C58.6699059,35.598382 61.334744,38.2629821 64.6219253,38.2629821 L94.3820225,38.2629821 L58.6699059,2.55086547 Z" id="Shape" fill="#000000" opacity="0.2"></path>
                <path d="M58.6699059,0 L58.6699059,29.7600972 C58.6699059,33.0475166 61.334744,35.7121166 64.6219253,35.7121166 L94.3820225,35.7121166 L58.6699059,0 Z" id="Shape" fill="#EDEDED"></path>
                <path d="M5.86699059,0 C2.6166778,0 0,2.43789857 0,5.4661403 L0,7.65259642 C0,4.62435469 2.6166778,2.18645612 5.86699059,2.18645612 L58.6699059,2.18645612 C58.6699059,0 58.6699059,2.18645612 58.6699059,0 L5.86699059,0 Z" id="Shape" fill="#FFFFFF" opacity="0.2"></path>
            </g>
        </g>
    </g>
</svg>