<?xml version="1.0" encoding="UTF-8"?>
<svg width="40px" height="51px" viewBox="0 0 40 51" version="1.1" xmlns="http://www.w3.org/2000/svg" xmlns:xlink="http://www.w3.org/1999/xlink">
    <!-- Generator: Sketch 49.3 (51167) - http://www.bohemiancoding.com/sketch -->
    <title>pgp</title>
    <desc>Created with Sketch.</desc>
    <defs></defs>
    <g id="icons" stroke="none" stroke-width="1" fill="none" fill-rule="evenodd">
        <g id="pgp" fill-rule="nonzero">
            <path d="M2.5,1.0000002 C1.115,1.0000002 0,2.1150002 0,3.50000001 L0,48.5000002 C0,49.8850002 1.115,51.0000002 2.5,51.0000002 L37.5,51.0000002 C38.885,51.0000002 40,49.8850002 40,48.5000002 L40,16.0000001 L26.25,14.7500001 L25,1.0000002 L2.5,1.0000002 Z" id="Shape" fill="#000000" opacity="0.2"></path>
            <path d="M2.5,0 C1.115,0 0,1.115 0,2.5 L0,47.5 C0,48.885 1.115,50 2.5,50 L37.5,50 C38.885,50 40,48.885 40,47.5 L40,15 L26.25,13.75 L25,0 L2.5,0 Z" id="Shape" fill="#D9D9D9"></path>
            <path d="M14,26 C9.581722,26 6,29.581722 6,34 C6,38.418278 9.581722,42 14,42 C17.2577035,41.997557 20.1885618,40.0199732 21.4102,37 L24.0002,37 L24.0002,40 L30.0002,40 L30.0002,37 L33.0002,37 L33.0002,31 L21.4122,31 C20.1903154,27.9794192 17.2585596,26.0017102 14.0002,26 L14,26 Z M14,31 C15.6568542,31 17,32.3431458 17,34 C17,35.6568542 15.6568542,37 14,37 C12.3431458,37 11,35.6568542 11,34 C11,32.3431458 12.3431458,31 14,31 Z" id="Shape" fill="#8F8F8F"></path>
            <path d="M25,1.0000002 L25,13.5000002 C25,14.8808002 26.1193,16.0000002 27.5,16.0000002 L40,16.0000002 L25,1.0000002 Z" id="Shape" fill="#000000" opacity="0.2"></path>
            <path d="M25,0 L25,12.5 C25,13.8808 26.1193,15 27.5,15 L40,15 L25,0 Z" id="Shape" fill="#EDEDED"></path>
            <path d="M2.5,2e-07 C1.115,2e-07 0,1.1150002 0,2.5000002 L0,3.5 C0,2.1150002 1.115,1.0000002 2.5,1.0000002 L25,1.0000002 C25,2e-07 25,1.0000002 25,2e-07 L2.5,2e-07 Z" id="Shape" fill="#FFFFFF" opacity="0.2"></path>
        </g>
    </g>
</svg>