<?xml version="1.0" encoding="UTF-8"?>
<svg width="40px" height="51px" viewBox="0 0 40 51" version="1.1" xmlns="http://www.w3.org/2000/svg" xmlns:xlink="http://www.w3.org/1999/xlink">
    <!-- Generator: Sketch 49.3 (51167) - http://www.bohemiancoding.com/sketch -->
    <title>audio-x-generic</title>
    <desc>Created with Sketch.</desc>
    <defs></defs>
    <g id="icons" stroke="none" stroke-width="1" fill="none" fill-rule="evenodd">
        <g id="audio-x-generic" fill-rule="nonzero">
            <path d="M2.5,1.0000003 C1.115,1.0000003 0,2.11500031 0,3.50000001 L0,48.5000003 C0,49.8850003 1.115,51.0000003 2.5,51.0000003 L37.5,51.0000003 C38.885,51.0000003 40,49.8850003 40,48.5000003 L40,16.0000001 L26.25,14.7500001 L25,1.0000003 L2.5,1.0000003 Z" id="Shape" fill="#000000" opacity="0.2"></path>
            <path d="M2.5,0 C1.115,0 0,1.115 0,2.5 L0,47.5 C0,48.885 1.115,50 2.5,50 L37.5,50 C38.885,50 40,48.885 40,47.5 L40,15 L26.25,13.75 L25,0 L2.5,0 Z" id="Shape" fill="#FEA64E"></path>
            <path d="M25,1.0000003 L25,13.5000002 C25,14.8808003 26.1193,16.0000003 27.5,16.0000003 L40,16.0000003 L25,1.0000003 Z" id="Shape" fill="#000000" opacity="0.2"></path>
            <path d="M25,0 L25,12.5 C25,13.8808 26.1193,15 27.5,15 L40,15 L25,0 Z" id="Shape" fill="#FEBF81"></path>
            <path d="M14,20 L14,34.42 C13.3693591,34.1437985 12.6884726,34.0008123 12,34 C9.23857625,34 7,36.2385763 7,39 C7,40.3260824 7.5267842,41.597852 8.46446609,42.5355339 C9.40214799,43.4732158 10.6739176,44 12,44 C14.7244499,43.9983341 16.9460796,41.8157912 16.9961,39.0918 L17.0001,39.0838 L17.0001,25.9998 L28.0001,25.9998 L28.0001,34.4197 C27.3694591,34.1434985 26.6885726,34.0005123 26.0001,33.9997 C23.2386763,33.9997 21.0001,36.2382763 21.0001,38.9997 C21.0001,41.7611237 23.2386763,43.9997 26.0001,43.9997 C28.6622447,43.9968003 30.8552943,41.9085166 30.9884,39.2497 L31.0004,39.2267 L31.0004,19.9997 L14.0004,19.9997 L14,20 Z" id="Shape" fill="#000000" opacity="0.2"></path>
            <path d="M14,19 L14,33.42 C13.3693591,33.1437985 12.6884726,33.0008123 12,33 C9.23857625,33 7,35.2385763 7,38 C7,40.7614237 9.23857625,43 12,43 C14.7244499,42.9983341 16.9460796,40.8157912 16.9961,38.0918 L17.0001,38.0838 L17.0001,24.9998 L28.0001,24.9998 L28.0001,33.4197 C27.3694591,33.1434985 26.6885726,33.0005123 26.0001,32.9997 C23.2386763,32.9997 21.0001,35.2382763 21.0001,37.9997 C21.0001,40.7611237 23.2386763,42.9997 26.0001,42.9997 C28.6622447,42.9968003 30.8552943,40.9085166 30.9884,38.2497 L31.0004,38.2267 L31.0004,18.9997 L14.0004,18.9997 L14,19 Z" id="Shape" fill="#FFFFFF"></path>
            <path d="M2.5,3e-07 C1.115,3e-07 0,1.1150003 0,2.5000003 L0,3.5 C0,2.1150003 1.115,1.0000003 2.5,1.0000003 L25,1.0000003 C25,3e-07 25,1.0000003 25,3e-07 L2.5,3e-07 Z" id="Shape" fill="#FFFFFF" opacity="0.2"></path>
        </g>
    </g>
</svg>