<?xml version="1.0" encoding="UTF-8"?>
<svg width="40px" height="51px" viewBox="0 0 40 51" version="1.1" xmlns="http://www.w3.org/2000/svg" xmlns:xlink="http://www.w3.org/1999/xlink">
    <!-- Generator: Sketch 49.3 (51167) - http://www.bohemiancoding.com/sketch -->
    <title>sql</title>
    <desc>Created with Sketch.</desc>
    <defs></defs>
    <g id="icons" stroke="none" stroke-width="1" fill="none" fill-rule="evenodd">
        <g id="sql" fill-rule="nonzero">
            <path d="M2.5,1.0000001 C1.115,1.0000001 0,2.1150001 0,3.5 L0,48.5000001 C0,49.8850001 1.115,51.0000001 2.5,51.0000001 L37.5,51.0000001 C38.885,51.0000001 40,49.8850001 40,48.5000001 L40,16 L26.25,14.75 L25,1.0000001 L2.5,1.0000001 Z" id="Shape" fill="#000000" opacity="0.2"></path>
            <path d="M2.5,0 C1.115,0 0,1.115 0,2.5 L0,47.5 C0,48.885 1.115,50 2.5,50 L37.5,50 C38.885,50 40,48.885 40,47.5 L40,15 L26.25,13.75 L25,0 L2.5,0 Z" id="Shape" fill="#A34B76"></path>
            <path d="M25,1.0000001 L25,13.5000001 C25,14.8808001 26.1193,16.0000001 27.5,16.0000001 L40,16.0000001 L25,1.0000001 Z" id="Shape" fill="#000000" opacity="0.2"></path>
            <path d="M25,0 L25,12.5 C25,13.8808 26.1193,15 27.5,15 L40,15 L25,0 Z" id="Shape" fill="#C782A4"></path>
            <path d="M20,23 C16.6441,23 13.7776,24.1645 12.5898,25.8125 C12.49007,25.95086 12.40138,26.09152 12.32613,26.23633 C12.25462,26.37394 12.19264,26.51353 12.14449,26.65625 C12.1322511,26.7004248 12.1211832,26.7446997 12.11129,26.78906 C12.08387,26.88578 12.05334,26.9814 12.03707,27.08008 C12.013108,27.2196792 12.0007612,27.3598322 12.00007,27.50008 C12.000509,27.6463 12.01549,27.79258 12.04109,27.93758 C12.0656799,28.0790998 12.1021808,28.2198844 12.15047,28.35946 C12.1996681,28.5010074 12.2609355,28.6411425 12.33406,28.77938 C12.4076573,28.9176764 12.4930427,29.0539006 12.58992,29.18758 C13.811811,30.8860806 16.7425078,31.9982425 19.99992,31.99958 C23.2576235,31.9982058 26.1884818,30.8858149 27.41012,29.18708 C27.4107877,29.1857802 27.4114544,29.1844802 27.41212,29.18318 C27.4927937,29.0690067 27.5651209,28.9530228 27.62892,28.83552 C27.64162,28.8127 27.65789,28.79008 27.66994,28.76716 C27.7196046,28.6684184 27.7632501,28.5687501 27.8008,28.46833 C27.81944,28.42125 27.84344,28.37509 27.85939,28.32771 C27.8850282,28.2447323 27.90652,28.1613662 27.92384,28.07771 C27.93925,28.01173 27.95662,27.94681 27.96681,27.88044 C27.9873786,27.7537595 27.9983885,27.6266453 27.99981,27.49944 C27.9987873,27.3494638 27.9844361,27.1996101 27.95681,27.05044 C27.87981,26.61544 27.69081,26.20144 27.40981,25.81144 C26.22181,24.16444 23.35581,22.99944 19.99981,22.99944 L20,23 Z M12.5898,32 C12.2018,32.52 12.0018,33.076 11.9998,33.637 C11.9998,36.047 15.5818,38 19.9998,38 C24.4178,38 27.9998,36.047 27.9998,33.637 C27.9978,33.076 27.7978,32.52 27.4098,32 C26.1878,33.647 23.2578,34.999 19.9998,35 C16.7418,34.999 13.8118,33.647 12.5898,32 Z M12.5898,38 C12.2018,38.52 12.0018,39.076 11.9998,39.637 C11.9998,42.047 15.5818,44 19.9998,44 C24.4178,44 27.9998,42.047 27.9998,39.637 C27.9978,39.076 27.7978,38.52 27.4098,38 C26.1878,39.647 23.2578,40.999 19.9998,41 C16.7418,40.999 13.8118,39.647 12.5898,38 Z" id="Shape" fill="#000000" opacity="0.2"></path>
            <path d="M20,22 C16.6441,22 13.7776,23.1645 12.5898,24.8125 C12.49007,24.95086 12.40138,25.09152 12.32613,25.23633 C12.25462,25.37394 12.19264,25.51353 12.14449,25.65625 C12.1322511,25.7004248 12.1211832,25.7446997 12.11129,25.78906 C12.08387,25.88578 12.05334,25.9814 12.03707,26.08008 C12.013108,26.2196792 12.0007612,26.3598322 12.00007,26.50008 C12.000509,26.6463 12.01549,26.79258 12.04109,26.93758 C12.0656799,27.0790998 12.1021808,27.2198844 12.15047,27.35946 C12.1996681,27.5010074 12.2609355,27.6411425 12.33406,27.77938 C12.4076573,27.9176764 12.4930427,28.0539006 12.58992,28.18758 C13.811811,29.8860806 16.7425078,30.9982425 19.99992,30.99958 C23.2576235,30.9982058 26.1884818,29.8858149 27.41012,28.18708 C27.4107877,28.1857802 27.4114544,28.1844802 27.41212,28.18318 C27.4927937,28.0690067 27.5651209,27.9530228 27.62892,27.83552 C27.64162,27.8127 27.65789,27.79008 27.66994,27.76716 C27.7196046,27.6684184 27.7632501,27.5687501 27.8008,27.46833 C27.81944,27.42125 27.84344,27.37509 27.85939,27.32771 C27.8850282,27.2447323 27.90652,27.1613662 27.92384,27.07771 C27.93925,27.01173 27.95662,26.94681 27.96681,26.88044 C27.9873786,26.7537595 27.9983885,26.6266453 27.99981,26.49944 C27.9987873,26.3494638 27.9844361,26.1996101 27.95681,26.05044 C27.87981,25.61544 27.69081,25.20144 27.40981,24.81144 C26.22181,23.16444 23.35581,21.99944 19.99981,21.99944 L20,22 Z M12.5898,31 C12.2018,31.52 12.0018,32.076 11.9998,32.637 C11.9998,35.047 15.5818,37 19.9998,37 C24.4178,37 27.9998,35.047 27.9998,32.637 C27.9978,32.076 27.7978,31.52 27.4098,31 C26.1878,32.647 23.2578,33.999 19.9998,34 C16.7418,33.999 13.8118,32.647 12.5898,31 Z M12.5898,37 C12.2018,37.52 12.0018,38.076 11.9998,38.637 C11.9998,41.047 15.5818,43 19.9998,43 C24.4178,43 27.9998,41.047 27.9998,38.637 C27.9978,38.076 27.7978,37.52 27.4098,37 C26.1878,38.647 23.2578,39.999 19.9998,40 C16.7418,39.999 13.8118,38.647 12.5898,37 Z" id="Shape" fill="#FFFFFF"></path>
            <path d="M2.5,0 C1.115,0 0,1.1150001 0,2.5000001 L0,3.5 C0,2.1150001 1.115,1.0000001 2.5,1.0000001 L25,1.0000001 C25,0 25,1.0000001 25,0 L2.5,0 Z" id="Shape" fill="#FFFFFF" opacity="0.2"></path>
        </g>
    </g>
</svg>