<?xml version="1.0" encoding="utf-8"?>
<!-- Generator: Adobe Illustrator 19.0.0, SVG Export Plug-In . SVG Version: 6.00 Build 0)  -->
<svg version="1.1" id="Layer_1" xmlns="http://www.w3.org/2000/svg" xmlns:xlink="http://www.w3.org/1999/xlink" x="0px" y="0px"
	 viewBox="0 0 512 512" style="enable-background:new 0 0 512 512;" xml:space="preserve">
<style type="text/css">
	.st0{fill:#E74C3C;}
	.st1{fill:#C0392B;}
	.st2{fill:#ECF0F1;}
</style>
<g id="XMLID_1_">
	<path id="XMLID_16_" class="st0" d="M70,0C44,0,23.6,20.4,23.6,46.4v70V372v70v23.6c0,26,20.4,46.4,46.4,46.4h46.4h279.2H442
		c26,0,46.4-20.4,46.4-46.4V442v-70V116.4v-70C488.4,20.4,468,0,442,0h-46.4H116.4H70z M58.2,46.4h23.6c6.3,0,11.8,5.5,11.8,11.8
		v23.6c0,6.3-5.5,11.8-11.8,11.8H58.2c-6.3,0-11.8-5.5-11.8-11.8V58.2C46.4,51.9,51.9,46.4,58.2,46.4z M430.2,46.4h23.6
		c6.3,0,11.8,5.5,11.8,11.8v23.6c0,6.3-5.5,11.8-11.8,11.8h-23.6c-6.3,0-11.8-5.5-11.8-11.8V58.2C418.4,51.9,423.1,46.4,430.2,46.4z
		 M58.2,116.4h23.6c6.3,0,11.8,5.5,11.8,11.8v23.6c0,6.3-5.5,11.8-11.8,11.8H58.2c-6.3,0-11.8-5.5-11.8-11.8v-23.6
		C46.4,121.1,51.9,116.4,58.2,116.4z M430.2,116.4h23.6c6.3,0,11.8,5.5,11.8,11.8v23.6c0,6.3-5.5,11.8-11.8,11.8h-23.6
		c-6.3,0-11.8-5.5-11.8-11.8v-23.6C418.4,121.1,423.1,116.4,430.2,116.4z M58.2,185.6h23.6c6.3,0,11.8,5.5,11.8,11.8V221
		c0,6.3-5.5,11.8-11.8,11.8H58.2c-6.3,0-11.8-5.5-11.8-11.8v-23.6C46.4,191.1,51.9,185.6,58.2,185.6z M430.2,185.6h23.6
		c6.3,0,11.8,5.5,11.8,11.8V221c0,6.3-5.5,11.8-11.8,11.8h-23.6c-6.3,0-11.8-5.5-11.8-11.8v-23.6
		C418.4,191.1,423.1,185.6,430.2,185.6z M58.2,255.6h23.6c6.3,0,11.8,5.5,11.8,11.8V291c0,6.3-5.5,11.8-11.8,11.8H58.2
		c-6.3,0-11.8-5.5-11.8-11.8v-23.6C46.4,261.1,51.9,255.6,58.2,255.6z M430.2,255.6h23.6c6.3,0,11.8,5.5,11.8,11.8V291
		c0,6.3-5.5,11.8-11.8,11.8h-23.6c-6.3,0-11.8-5.5-11.8-11.8v-23.6C418.4,261.1,423.1,255.6,430.2,255.6z M58.2,325.6h23.6
		c6.3,0,11.8,5.5,11.8,11.8V361c0,6.3-5.5,11.8-11.8,11.8H58.2c-6.3,0-11.8-5.5-11.8-11.8v-23.6C46.4,330.3,51.9,325.6,58.2,325.6z
		 M430.2,325.6h23.6c6.3,0,11.8,5.5,11.8,11.8V361c0,6.3-5.5,11.8-11.8,11.8h-23.6c-6.3,0-11.8-5.5-11.8-11.8v-23.6
		C418.4,330.3,423.1,325.6,430.2,325.6z M58.2,394.8h23.6c6.3,0,11.8,5.5,11.8,11.8v23.6c0,6.3-5.5,11.8-11.8,11.8H58.2
		c-6.3,0-11.8-5.5-11.8-11.8v-23.6C46.4,400.3,51.9,394.8,58.2,394.8z M430.2,394.8h23.6c6.3,0,11.8,5.5,11.8,11.8v23.6
		c0,6.3-5.5,11.8-11.8,11.8h-23.6c-6.3,0-11.8-5.5-11.8-11.8v-23.6C418.4,400.3,423.1,394.8,430.2,394.8z"/>
	<path id="XMLID_22_" class="st1" d="M23.6,255.6V372v70v23.6C23.6,490.8,44,512,70,512h46.4h279.2H442c26,0,46.4-21.2,46.4-46.4
		V442v-70V255.6h-34.6c6.3,0,11.8,4.7,11.8,11.8V291c0,4.7-5.5,11.8-11.8,11.8h-23.6c-6.3,0-11.8-7.1-11.8-11.8v-23.6
		c0-7.1,5.5-11.8,11.8-11.8H81c6.3,0,11.8,4.7,11.8,11.8V291c0,4.7-5.5,11.8-11.8,11.8H57.4c-6.3,0-11.8-7.1-11.8-11.8v-23.6
		c0-7.1,5.5-11.8,11.8-11.8H23.6z M58.2,325.6h23.6c6.3,0,11.8,4.7,11.8,11.8V361c0,4.7-5.5,11.8-11.8,11.8H58.2
		c-6.3,0-11.8-7.1-11.8-11.8v-23.6C46.4,330.3,51.9,325.6,58.2,325.6z M430.2,325.6h23.6c6.3,0,11.8,4.7,11.8,11.8V361
		c0,4.7-5.5,11.8-11.8,11.8h-23.6c-6.3,0-11.8-7.1-11.8-11.8v-23.6C418.4,330.3,423.1,325.6,430.2,325.6z M58.2,394.8h23.6
		c6.3,0,11.8,4.7,11.8,11.8v23.6c0,4.7-5.5,11.8-11.8,11.8H58.2c-6.3,0-11.8-7.1-11.8-11.8v-23.6C46.4,399.5,51.9,394.8,58.2,394.8z
		 M430.2,394.8h23.6c6.3,0,11.8,4.7,11.8,11.8v23.6c0,4.7-5.5,11.8-11.8,11.8h-23.6c-6.3,0-11.8-7.1-11.8-11.8v-23.6
		C418.4,399.5,423.1,394.8,430.2,394.8z"/>
	<polygon id="XMLID_23_" class="st2" points="209.2,324 209.2,184 325.6,254 	"/>
</g>
</svg>
