<?xml version="1.0" standalone="no"?>
<!DOCTYPE svg PUBLIC "-//W3C//DTD SVG 20010904//EN"
 "http://www.w3.org/TR/2001/REC-SVG-20010904/DTD/svg10.dtd">
<svg version="1.0" xmlns="http://www.w3.org/2000/svg"
 width="431.000000pt" height="431.000000pt" viewBox="0 0 431.000000 431.000000"
 preserveAspectRatio="xMidYMid meet">
<metadata>
Created by potrace 1.11, written by Peter Selinger 2001-2013
</metadata>
<g transform="translate(0.000000,431.000000) scale(0.100000,-0.100000)"
fill="#000000" stroke="none">
<path d="M875 4300 c-403 -44 -738 -341 -842 -746 -17 -64 -18 -162 -18 -1399
l0 -1330 23 -85 c95 -359 388 -641 744 -714 68 -14 229 -16 1378 -16 1429 0
1366 -2 1530 61 156 60 319 183 422 318 64 85 141 243 170 351 l23 85 0 1330
0 1330 -23 85 c-12 47 -43 128 -68 179 -128 268 -348 448 -643 529 l-96 27
-1265 1 c-696 1 -1297 -2 -1335 -6z m2614 -306 c36 -9 104 -34 150 -56 68 -33
100 -56 171 -127 95 -95 141 -171 182 -301 l23 -75 0 -1275 c0 -1433 6 -1322
-77 -1490 -33 -68 -58 -102 -127 -170 -98 -98 -185 -147 -315 -180 -77 -19
-114 -20 -1336 -20 -1222 0 -1259 1 -1336 20 -129 32 -217 82 -315 180 -74 73
-93 99 -132 180 -25 52 -51 120 -59 150 -10 45 -13 295 -13 1330 0 1207 1
1278 18 1340 21 73 62 159 106 223 53 77 168 175 255 217 149 72 62 68 1470
69 1130 1 1277 -1 1335 -15z"/>
<path d="M1163 3246 c-108 -35 -197 -117 -234 -215 -17 -46 -20 -72 -17 -146
3 -79 8 -98 38 -153 115 -217 405 -253 573 -73 74 79 92 127 92 241 0 88 -3
101 -33 162 -59 119 -167 189 -302 195 -45 2 -92 -3 -117 -11z"/>
<path d="M2085 3254 c-226 -57 -345 -295 -251 -500 128 -280 523 -278 654 4
22 47 27 71 27 142 0 75 -4 93 -31 150 -61 127 -167 199 -303 206 -42 1 -85 1
-96 -2z"/>
<path d="M2953 3246 c-100 -33 -169 -92 -221 -189 -24 -47 -27 -62 -27 -152 0
-89 3 -106 28 -157 37 -75 98 -135 177 -172 55 -26 76 -30 146 -30 75 0 89 3
158 37 80 40 123 83 167 167 21 39 24 59 24 150 0 96 -2 110 -29 163 -59 116
-173 188 -306 194 -45 2 -92 -3 -117 -11z"/>
<path d="M1114 2356 c-50 -22 -111 -83 -129 -129 -14 -37 -15 -104 -13 -534
l3 -491 30 -43 c17 -24 53 -57 80 -74 47 -29 51 -30 179 -30 144 0 166 6 226
67 71 70 70 60 70 588 l0 475 -24 50 c-49 104 -112 135 -276 134 -75 0 -126
-5 -146 -13z"/>
<path d="M1992 2344 c-63 -31 -107 -88 -122 -158 -8 -34 -10 -198 -8 -506 3
-444 4 -456 25 -495 25 -47 64 -85 113 -111 29 -16 57 -19 160 -19 103 0 131
3 160 19 49 26 88 64 113 111 21 39 22 51 25 500 2 312 -1 474 -8 504 -17 68
-62 125 -122 155 -47 24 -63 26 -168 26 -105 0 -121 -3 -168 -26z"/>
<path d="M2895 2347 c-59 -28 -96 -69 -119 -129 -15 -38 -16 -99 -14 -524 l3
-481 30 -49 c19 -30 49 -60 79 -79 45 -27 58 -30 155 -33 59 -2 125 1 147 7
62 17 120 64 149 121 l26 50 -3 494 -3 494 -30 43 c-17 24 -50 57 -74 74 -41
29 -47 30 -169 33 -116 2 -131 1 -177 -21z"/>
</g>
</svg>
