<?xml version="1.0" encoding="UTF-8" standalone="no"?>
<!-- Created with Inkscape (http://www.inkscape.org/) -->

<svg
   xmlns:dc="http://purl.org/dc/elements/1.1/"
   xmlns:cc="http://creativecommons.org/ns#"
   xmlns:rdf="http://www.w3.org/1999/02/22-rdf-syntax-ns#"
   xmlns:svg="http://www.w3.org/2000/svg"
   xmlns="http://www.w3.org/2000/svg"
   xmlns:sodipodi="http://sodipodi.sourceforge.net/DTD/sodipodi-0.dtd"
   xmlns:inkscape="http://www.inkscape.org/namespaces/inkscape"
   version="1.1"
   id="svg3718"
   xml:space="preserve"
   width="669.50665"
   height="143.90668"
   viewBox="0 0 669.50665 143.90668"
   sodipodi:docname="go-logo.svg"
   inkscape:version="0.92.2 (5c3e80d, 2017-08-06)"><metadata
     id="metadata3724"><rdf:RDF><cc:Work
         rdf:about=""><dc:format>image/svg+xml</dc:format><dc:type
           rdf:resource="http://purl.org/dc/dcmitype/StillImage" /></cc:Work></rdf:RDF></metadata><defs
     id="defs3722" /><sodipodi:namedview
     pagecolor="#ffffff"
     bordercolor="#666666"
     borderopacity="1"
     objecttolerance="10"
     gridtolerance="10"
     guidetolerance="10"
     inkscape:pageopacity="0"
     inkscape:pageshadow="2"
     inkscape:window-width="1920"
     inkscape:window-height="995"
     id="namedview3720"
     showgrid="false"
     inkscape:zoom="1.8588433"
     inkscape:cx="273.16516"
     inkscape:cy="92.776042"
     inkscape:window-x="0"
     inkscape:window-y="0"
     inkscape:window-maximized="1"
     inkscape:current-layer="g3728" /><g
     id="g3726"
     inkscape:groupmode="layer"
     inkscape:label="ink_ext_XXXXXX"
     transform="matrix(1.3333333,0,0,-1.3333333,0,143.90667)"><g
       id="g3728"
       transform="scale(0.1)"><path
         d="m 2671.36,798.508 c 0,-0.496 -0.39,-0.899 -0.9,-0.899 v 0 c -0.48,0 -0.89,0.403 -0.89,0.899 v 3.594 c 0,0.5 0.41,0.898 0.89,0.898 v 0 c 0.51,0 0.9,-0.398 0.9,-0.898 v -3.594"
         style="fill:#f68b11;fill-opacity:1;fill-rule:nonzero;stroke:none"
         id="path3730"
         inkscape:connector-curvature="0" /><path
         d="m 2671.36,797.609 c 0,-0.496 -0.39,-0.898 -0.9,-0.898 v 0 c -0.48,0 -0.89,0.402 -0.89,0.898 v 3.594 c 0,0.5 0.41,0.899 0.89,0.899 v 0 c 0.51,0 0.9,-0.399 0.9,-0.899 v -3.594"
         style="fill:#f68b11;fill-opacity:1;fill-rule:nonzero;stroke:none"
         id="path3732"
         inkscape:connector-curvature="0" /><path
         d="m 3056.13,1042.13 v 0 0 0 0 0 0 0 0"
         style="fill:#f68b11;fill-opacity:1;fill-rule:nonzero;stroke:none"
         id="path3734"
         inkscape:connector-curvature="0" /><path
         d="m 3056.13,1042.13 v 0 0 0 0 0 0 0 0"
         style="fill:#f68b11;fill-opacity:1;fill-rule:nonzero;stroke:none"
         id="path3736"
         inkscape:connector-curvature="0" /><path
         d="m 3752.44,803 v 0 h 2.5 v 0 0 0 h -2.5 v 0 0"
         style="fill:#f68b11;fill-opacity:1;fill-rule:nonzero;stroke:none"
         id="path3738"
         inkscape:connector-curvature="0" /><path
         d="m 3757.44,803 v 0 h -2.5 v 0 0 0 h 2.5 v 0 0"
         style="fill:#f68b11;fill-opacity:1;fill-rule:nonzero;stroke:none"
         id="path3740"
         inkscape:connector-curvature="0" /><path
         d="M 244.297,1005.8 C 150.102,1005.8 73.4727,929.172 73.4727,834.965 V 244.313 c 0,-94.2 76.6293,-170.8442 170.8243,-170.8442 h 590.668 c 94.191,0 170.825,76.6442 170.825,170.8442 v 590.652 c 0,94.207 -76.634,170.835 -170.825,170.835 z M 834.965,0 H 244.297 C 109.594,0 0,109.605 0,244.313 v 590.652 c 0,134.707 109.594,244.305 244.297,244.305 h 590.668 c 134.703,0 244.295,-109.598 244.295,-244.305 V 244.313 C 1079.26,109.605 969.668,0 834.965,0"
         style="fill:#f68b11;fill-opacity:1;fill-rule:nonzero;stroke:none"
         id="path3742"
         inkscape:connector-curvature="0" /><path
         d="m 854.363,726.977 c 0,-49.622 -40.238,-89.825 -89.816,-89.825 -49.57,0 -89.777,40.203 -89.777,89.825 0,49.55 40.207,89.785 89.777,89.785 49.578,0 89.816,-40.235 89.816,-89.785"
         style="fill:#6ea31b;fill-opacity:1;fill-rule:nonzero;stroke:none"
         id="path3744"
         inkscape:connector-curvature="0" /><path
         d="m 839.121,322.672 c 0,-33.203 -26.926,-60.156 -60.156,-60.156 H 750.16 c -33.226,0 -60.148,26.953 -60.148,60.156 v 211.219 c 0,33.211 26.922,60.136 60.148,60.136 h 28.805 c 33.23,0 60.156,-26.925 60.156,-60.136 V 322.672"
         style="fill:#0098c9;fill-opacity:1;fill-rule:nonzero;stroke:none"
         id="path3746"
         inkscape:connector-curvature="0" /><path
         d="m 629.434,726.977 c 0,-49.622 -40.219,-89.825 -89.805,-89.825 -49.602,0 -89.789,40.203 -89.789,89.825 0,49.57 40.187,89.785 89.789,89.785 49.586,0 89.805,-40.215 89.805,-89.785"
         style="fill:#6ea31b;fill-opacity:1;fill-rule:nonzero;stroke:none"
         id="path3748"
         inkscape:connector-curvature="0" /><path
         d="m 614.195,322.672 c 0,-33.203 -26.937,-60.156 -60.14,-60.156 h -28.821 c -33.218,0 -60.156,26.953 -60.156,60.156 v 211.219 c 0,33.211 26.938,60.136 60.156,60.136 h 28.821 c 33.203,0 60.14,-26.925 60.14,-60.136 V 322.672"
         style="fill:#0098c9;fill-opacity:1;fill-rule:nonzero;stroke:none"
         id="path3750"
         inkscape:connector-curvature="0" /><path
         d="m 404.504,726.977 c 0,-49.622 -40.242,-89.825 -89.836,-89.825 -49.57,0 -89.781,40.203 -89.781,89.825 0,49.57 40.211,89.785 89.781,89.785 49.594,0 89.836,-40.215 89.836,-89.785"
         style="fill:#6ea31b;fill-opacity:1;fill-rule:nonzero;stroke:none"
         id="path3752"
         inkscape:connector-curvature="0" /><path
         d="m 389.254,322.672 c 0,-33.203 -26.926,-60.156 -60.156,-60.156 h -28.805 c -33.227,0 -60.156,26.953 -60.156,60.156 v 211.219 c 0,33.211 26.929,60.136 60.156,60.136 h 28.805 c 33.23,0 60.156,-26.925 60.156,-60.136 V 322.672"
         style="fill:#0098c9;fill-opacity:1;fill-rule:nonzero;stroke:none"
         id="path3754"
         inkscape:connector-curvature="0" /><path
         d="m 1680.89,339.129 c -20.39,-8.594 -40.97,-12.891 -61.75,-12.891 -32.78,0 -62.26,5.692 -88.43,17.078 -26.18,11.399 -48.26,27.082 -66.25,47.071 -17.98,19.98 -31.77,43.457 -41.36,70.441 -9.59,26.973 -14.39,56.055 -14.39,87.227 0,31.972 4.8,61.648 14.39,89.031 9.59,27.363 23.38,51.25 41.36,71.641 17.99,20.382 40.07,36.359 66.25,47.961 26.17,11.582 55.65,17.382 88.43,17.382 21.97,0 43.26,-3.293 63.85,-9.894 20.58,-6.59 39.16,-16.289 55.75,-29.071 16.58,-12.792 30.28,-28.585 41.07,-47.363 10.79,-18.789 17.38,-40.371 19.78,-64.746 h -89.93 c -5.6,23.984 -16.39,41.961 -32.37,53.953 -15.99,11.992 -35.37,17.989 -58.15,17.989 -21.19,0 -39.17,-4.102 -53.96,-12.293 -14.79,-8.196 -26.78,-19.18 -35.97,-32.969 -9.2,-13.789 -15.88,-29.485 -20.08,-47.063 -4.2,-17.597 -6.3,-35.781 -6.3,-54.558 0,-17.989 2.1,-35.469 6.3,-52.461 4.2,-16.992 10.88,-32.278 20.08,-45.86 9.19,-13.593 21.18,-24.484 35.97,-32.675 14.79,-8.196 32.77,-12.286 53.96,-12.286 31.17,0 55.25,7.891 72.24,23.684 16.98,15.777 26.88,38.66 29.67,68.641 h -94.72 v 70.144 h 179.86 V 335.828 h -59.95 l -9.59,48.563 c -16.79,-21.582 -35.38,-36.68 -55.76,-45.262"
         style="fill:#231f20;fill-opacity:1;fill-rule:nonzero;stroke:none"
         id="path3756"
         inkscape:connector-curvature="0" /><path
         d="m 1954.26,645.777 v -57.558 h 1.2 c 3.99,9.601 9.38,18.488 16.19,26.679 6.79,8.196 14.58,15.188 23.38,20.989 8.78,5.789 18.18,10.281 28.17,13.488 9.99,3.191 20.39,4.793 31.18,4.793 5.59,0 11.78,-0.996 18.58,-3 v -79.129 c -4,0.789 -8.79,1.492 -14.39,2.098 -5.6,0.597 -10.99,0.898 -16.18,0.898 -15.59,0 -28.78,-2.605 -39.57,-7.793 -10.79,-5.203 -19.49,-12.293 -26.08,-21.289 -6.59,-8.992 -11.3,-19.48 -14.09,-31.473 -2.8,-11.992 -4.19,-24.98 -4.19,-38.964 V 335.828 h -85.13 v 309.949 h 80.93"
         style="fill:#231f20;fill-opacity:1;fill-rule:nonzero;stroke:none"
         id="path3758"
         inkscape:connector-curvature="0" /><path
         d="m 2174.88,454.234 c 2.4,-11.796 6.5,-22.39 12.29,-31.777 5.79,-9.394 13.49,-16.894 23.08,-22.48 9.6,-5.602 21.59,-8.395 35.98,-8.395 14.39,0 26.47,2.793 36.27,8.395 9.79,5.586 17.58,13.086 23.38,22.48 5.79,9.387 9.89,19.981 12.29,31.777 2.4,11.778 3.59,23.879 3.59,36.27 0,12.383 -1.19,24.582 -3.59,36.562 -2.4,11.993 -6.5,22.579 -12.29,31.778 -5.8,9.191 -13.59,16.691 -23.38,22.48 -9.8,5.793 -21.88,8.692 -36.27,8.692 -14.39,0 -26.38,-2.899 -35.98,-8.692 -9.59,-5.789 -17.29,-13.289 -23.08,-22.48 -5.79,-9.199 -9.89,-19.785 -12.29,-31.778 -2.39,-11.98 -3.6,-24.179 -3.6,-36.562 0,-12.391 1.21,-24.492 3.6,-36.27 z m -77.34,103.711 c 7.59,20.18 18.38,37.364 32.38,51.563 13.99,14.18 30.77,25.176 50.36,32.969 19.58,7.793 41.56,11.691 65.95,11.691 24.37,0 46.46,-3.898 66.24,-11.691 19.79,-7.793 36.67,-18.789 50.66,-32.969 13.98,-14.199 24.78,-31.383 32.37,-51.563 7.59,-20.183 11.39,-42.664 11.39,-67.441 0,-24.785 -3.8,-47.168 -11.39,-67.149 -7.59,-19.988 -18.39,-37.078 -32.37,-51.257 -13.99,-14.192 -30.87,-25.09 -50.66,-32.676 -19.78,-7.59 -41.87,-11.387 -66.24,-11.387 -24.39,0 -46.37,3.797 -65.95,11.387 -19.59,7.586 -36.37,18.484 -50.36,32.676 -14,14.179 -24.79,31.269 -32.38,51.257 -7.59,19.981 -11.38,42.364 -11.38,67.149 0,24.777 3.79,47.258 11.38,67.441"
         style="fill:#231f20;fill-opacity:1;fill-rule:nonzero;stroke:none"
         id="path3760"
         inkscape:connector-curvature="0" /><path
         d="m 2671.87,335.828 v 43.164 h -1.8 c -10.78,-17.988 -24.78,-30.976 -41.96,-38.965 -17.19,-7.988 -34.77,-11.992 -52.75,-11.992 -22.79,0 -41.47,2.996 -56.06,8.992 -14.59,5.996 -26.08,14.485 -34.47,25.481 -8.39,10.984 -14.3,24.375 -17.69,40.164 -3.4,15.785 -5.09,33.273 -5.09,52.461 v 190.644 h 85.13 V 470.719 c 0,-25.586 3.99,-44.668 11.99,-57.254 7.99,-12.59 22.18,-18.887 42.56,-18.887 23.18,0 39.96,6.895 50.36,20.684 10.39,13.789 15.59,36.465 15.59,68.047 v 162.468 h 85.13 V 335.828 h -80.94"
         style="fill:#231f20;fill-opacity:1;fill-rule:nonzero;stroke:none"
         id="path3762"
         inkscape:connector-curvature="0" /><path
         d="m 3009.1,399.977 c 9.39,5.586 16.99,12.89 22.79,21.875 5.78,8.996 9.88,19.492 12.28,31.476 2.41,11.992 3.6,24.18 3.6,36.57 0,12.383 -1.29,24.582 -3.89,36.575 -2.62,11.992 -6.89,22.675 -12.89,32.07 -5.99,9.395 -13.69,16.992 -23.08,22.781 -9.4,5.793 -20.9,8.692 -34.48,8.692 -14,0 -25.68,-2.899 -35.08,-8.692 -9.39,-5.789 -16.99,-13.289 -22.77,-22.48 -5.8,-9.199 -9.9,-19.785 -12.28,-31.778 -2.41,-11.98 -3.6,-24.375 -3.6,-37.168 0,-12.39 1.29,-24.578 3.89,-36.57 2.6,-11.984 6.8,-22.48 12.6,-31.476 5.78,-8.985 13.47,-16.289 23.06,-21.875 9.61,-5.602 21.19,-8.395 34.79,-8.395 13.98,0 25.66,2.793 35.06,8.395 z m -110.61,245.8 v -39.57 h 1.21 c 10.37,16.789 23.58,28.977 39.55,36.574 16,7.586 33.58,11.387 52.78,11.387 24.37,0 45.35,-4.602 62.95,-13.789 17.57,-9.199 32.16,-21.387 43.75,-36.574 11.6,-15.184 20.17,-32.871 25.78,-53.055 5.6,-20.187 8.4,-41.27 8.4,-63.242 0,-20.793 -2.8,-40.774 -8.4,-59.953 -5.61,-19.188 -14.09,-36.18 -25.47,-50.957 -11.41,-14.793 -25.59,-26.59 -42.58,-35.371 -16.99,-8.789 -36.86,-13.192 -59.65,-13.192 -19.18,0 -36.87,3.895 -53.05,11.688 -16.19,7.793 -29.49,19.277 -39.88,34.472 h -1.19 V 227.313 h -85.14 v 418.464 h 80.94"
         style="fill:#231f20;fill-opacity:1;fill-rule:nonzero;stroke:none"
         id="path3764"
         inkscape:connector-curvature="0" /><path
         d="m 3441.34,495.594 c 4.2,-16.992 10.88,-32.278 20.08,-45.86 9.2,-13.593 21.19,-24.484 35.98,-32.675 14.78,-8.196 32.77,-12.286 53.96,-12.286 21.17,0 39.16,4.09 53.95,12.286 14.78,8.191 26.77,19.082 35.97,32.675 9.18,13.582 15.88,28.868 20.08,45.86 4.2,16.992 6.29,34.472 6.29,52.461 0,18.777 -2.09,36.961 -6.29,54.558 -4.2,17.578 -10.9,33.274 -20.08,47.063 -9.2,13.789 -21.19,24.773 -35.97,32.969 -14.79,8.191 -32.78,12.293 -53.95,12.293 -21.19,0 -39.18,-4.102 -53.96,-12.293 -14.79,-8.196 -26.78,-19.18 -35.98,-32.969 -9.2,-13.789 -15.88,-29.485 -20.08,-47.063 -4.2,-17.597 -6.29,-35.781 -6.29,-54.558 0,-17.989 2.09,-35.469 6.29,-52.461 z m -86.03,141.492 c 9.59,27.363 23.38,51.25 41.36,71.641 17.99,20.382 40.08,36.359 66.25,47.961 26.18,11.582 55.65,17.382 88.44,17.382 33.17,0 62.74,-5.8 88.73,-17.382 25.96,-11.602 47.95,-27.579 65.94,-47.961 17.99,-20.391 31.78,-44.278 41.37,-71.641 9.59,-27.383 14.39,-57.059 14.39,-89.031 0,-31.172 -4.8,-60.254 -14.39,-87.227 -9.59,-26.984 -23.38,-50.461 -41.37,-70.441 -17.99,-19.989 -39.98,-35.672 -65.94,-47.071 -25.99,-11.386 -55.56,-17.078 -88.73,-17.078 -32.79,0 -62.26,5.692 -88.44,17.078 -26.17,11.399 -48.26,27.082 -66.25,47.071 -17.98,19.98 -31.77,43.457 -41.36,70.441 -9.59,26.973 -14.38,56.055 -14.38,87.227 0,31.972 4.79,61.648 14.38,89.031"
         style="fill:#231f20;fill-opacity:1;fill-rule:nonzero;stroke:none"
         id="path3766"
         inkscape:connector-curvature="0" /><path
         d="m 3784.57,588.824 v 56.953 h 50.95 v 23.977 c 0,27.578 8.6,50.156 25.78,67.746 17.19,17.586 43.17,26.383 77.95,26.383 7.58,0 15.18,-0.301 22.78,-0.899 7.57,-0.605 14.98,-1.109 22.18,-1.504 v -63.542 c -10,1.191 -20.39,1.796 -31.17,1.796 -11.6,0 -19.9,-2.695 -24.88,-8.097 -5,-5.387 -7.5,-14.492 -7.5,-27.274 v -18.586 h 58.75 v -56.953 h -58.75 V 335.828 h -85.14 v 252.996 h -50.95"
         style="fill:#231f20;fill-opacity:1;fill-rule:nonzero;stroke:none"
         id="path3768"
         inkscape:connector-curvature="0" /><path
         d="M 4315.74,645.777 V 335.828 h -85.14 v 309.949 z m -85.14,47.961 v 70.145 h 85.14 V 693.738 Z M 3984.19,588.824 v 56.953 h 50.96 v 23.977 c 0,27.578 8.6,50.156 25.78,67.746 17.19,17.586 43.17,26.383 77.95,26.383 7.58,0 15.18,-0.301 22.78,-0.899 7.57,-0.605 14.98,-1.109 22.18,-1.504 v -63.542 c -10,1.191 -20.39,1.796 -31.17,1.796 -11.6,0 -19.9,-2.695 -24.88,-8.097 -5,-5.387 -7.5,-14.492 -7.5,-27.274 v -18.586 h 58.75 v -56.953 h -58.75 V 335.828 h -85.14 v 252.996 h -50.96"
         style="fill:#231f20;fill-opacity:1;fill-rule:nonzero;stroke:none"
         id="path3770"
         inkscape:connector-curvature="0" /><path
         d="m 4530.95,590.016 c -13.59,0 -24.98,-3.094 -34.18,-9.286 -9.2,-6.203 -16.68,-14.187 -22.48,-23.984 -5.8,-9.797 -9.88,-20.586 -12.28,-32.371 -2.41,-11.789 -3.6,-23.488 -3.6,-35.07 0,-11.192 1.19,-22.59 3.6,-34.172 2.4,-11.602 6.29,-22.09 11.7,-31.473 5.39,-9.394 12.67,-17.09 21.87,-23.086 9.18,-5.996 20.39,-8.992 33.58,-8.992 20.39,0 36.05,5.691 47.05,17.086 10.99,11.387 17.89,26.68 20.68,45.859 h 82.15 c -5.61,-41.172 -21.58,-72.539 -47.97,-94.121 -26.39,-21.582 -60.16,-32.371 -101.31,-32.371 -23.18,0 -44.47,3.895 -63.85,11.688 -19.39,7.793 -35.88,18.683 -49.47,32.675 -13.59,13.985 -24.18,30.665 -31.78,50.059 -7.59,19.387 -11.38,40.668 -11.38,63.848 0,23.988 3.49,46.261 10.48,66.847 7,20.575 17.29,38.368 30.88,53.36 13.6,14.98 30.18,26.679 49.77,35.066 19.57,8.391 41.95,12.59 67.15,12.59 18.38,0 36.05,-2.395 53.04,-7.188 17,-4.804 32.17,-12.101 45.57,-21.886 13.38,-9.801 24.28,-21.992 32.68,-36.571 8.4,-14.589 13.18,-31.875 14.39,-51.855 h -83.34 c -5.6,35.566 -26.58,53.348 -62.95,53.348"
         style="fill:#231f20;fill-opacity:1;fill-rule:nonzero;stroke:none"
         id="path3772"
         inkscape:connector-curvature="0" /><path
         d="m 4914.33,573.238 c -10.19,11.184 -25.68,16.778 -46.46,16.778 -13.6,0 -24.89,-2.305 -33.87,-6.891 -9,-4.602 -16.19,-10.297 -21.58,-17.082 -5.39,-6.809 -9.2,-13.996 -11.39,-21.582 -2.21,-7.598 -3.52,-14.395 -3.91,-20.383 h 138.5 c -4,21.582 -11.09,37.961 -21.29,49.16 z M 4818.1,410.164 c 12.79,-12.394 31.19,-18.582 55.16,-18.582 17.18,0 31.97,4.293 44.37,12.887 12.38,8.594 19.98,17.687 22.78,27.277 h 74.94 c -12,-37.168 -30.37,-63.75 -55.16,-79.726 -24.78,-15.997 -54.77,-23.985 -89.92,-23.985 -24.4,0 -46.37,3.895 -65.96,11.688 -19.57,7.793 -36.17,18.886 -49.74,33.273 -13.6,14.395 -24.09,31.57 -31.49,51.563 -7.4,19.98 -11.09,41.961 -11.09,65.945 0,23.176 3.81,44.758 11.4,64.746 7.58,19.98 18.38,37.266 32.37,51.855 13.98,14.59 30.66,26.086 50.06,34.473 19.39,8.391 40.85,12.59 64.45,12.59 26.39,0 49.35,-5.098 68.94,-15.285 19.57,-10.195 35.67,-23.883 48.27,-41.063 12.57,-17.195 21.68,-36.777 27.26,-58.761 5.61,-21.981 7.6,-44.961 6,-68.946 h -223.62 c 1.21,-27.578 8.19,-47.566 20.98,-59.949"
         style="fill:#231f20;fill-opacity:1;fill-rule:nonzero;stroke:none"
         id="path3774"
         inkscape:connector-curvature="0" /></g></g></svg>